<?xml version="1.0" encoding="UTF-8"?>
<svg version="1.1" xmlns="http://www.w3.org/2000/svg" width="156" height="142">
<path d="M0 0 C4.3302365 0.58929099 5.6924317 2.27567813 8.65234375 5.4375 C9.37490356 6.19788574 9.37490356 6.19788574 10.11206055 6.97363281 C13.21270596 10.26113934 16.20764482 13.64092789 19.140625 17.078125 C22.09117819 20.43430979 25.15663344 23.67953903 28.21484375 26.9375 C32.30879862 31.30226535 36.35258971 35.68454237 40.25 40.2265625 C42.54423851 42.80815096 44.91012955 45.31504654 47.28100586 47.82617188 C50.28058579 51.01007041 53.2519448 54.21948208 56.21484375 57.4375 C56.92447266 58.20175293 56.92447266 58.20175293 57.6484375 58.98144531 C64.00445947 65.91221395 64.00445947 65.91221395 64.71484375 71.0625 C62.90853669 75.12669088 60.61560403 77.42535621 57.37890625 80.421875 C55.42572672 82.24108192 53.6949438 84.09660684 51.96484375 86.125 C48.87189951 89.71703298 45.68539061 93.21035009 42.46484375 96.6875 C41.95042725 97.24308594 41.43601074 97.79867187 40.90600586 98.37109375 C39.85784945 99.50286145 38.8095907 100.63453438 37.76123047 101.76611328 C32.05776197 107.93061365 26.38435378 114.12257875 20.77734375 120.375 C3.69847038 139.40663022 3.69847038 139.40663022 0.27734375 139.625 C-2.78515625 139.4375 -2.78515625 139.4375 -4.78515625 137.4375 C-5.03683853 135.08864594 -5.03683853 135.08864594 -5.03912354 132.08532715 C-5.04476318 130.94955734 -5.05040283 129.81378754 -5.05621338 128.64360046 C-5.05216492 127.3915834 -5.04811646 126.13956635 -5.04394531 124.84960938 C-5.04744995 123.53579788 -5.05095459 122.22198639 -5.05456543 120.86836243 C-5.06370285 117.25892023 -5.06013966 113.64959204 -5.05380726 110.04014778 C-5.04875423 106.268095 -5.05343676 102.49605218 -5.05657959 98.72399902 C-5.06022128 92.38873537 -5.05541484 86.0535183 -5.04589844 79.71826172 C-5.03501348 72.38713329 -5.03853892 65.0561161 -5.04955125 57.72499037 C-5.05861837 51.43791229 -5.05991223 45.15086776 -5.05467391 38.86378527 C-5.05155103 35.10559801 -5.05115354 31.34746309 -5.05774689 27.58927917 C-5.06458073 23.40124898 -5.05511701 19.21341145 -5.04394531 15.02539062 C-5.04799377 13.77337357 -5.05204224 12.52135651 -5.05621338 11.23139954 C-5.05057373 10.09562973 -5.04493408 8.95985992 -5.03912354 7.78967285 C-5.03836948 6.79857765 -5.03761543 5.80748245 -5.03683853 4.78635406 C-4.65166275 1.19165642 -3.48376023 0.54723863 0 0 Z " fill="#D5CB8E" transform="translate(4.78515625,1.5625)"/>
<path d="M0 0 C2.30859375 1.6875 2.30859375 1.6875 4.4375 4 C5.21351562 4.83015625 5.98953125 5.6603125 6.7890625 6.515625 C7.51867187 7.33546875 8.24828125 8.1553125 9 9 C9.84691406 9.95132812 9.84691406 9.95132812 10.7109375 10.921875 C11.81489764 12.18200511 12.9121777 13.44800822 14.00390625 14.71875 C16.5346166 17.6109904 19.13852651 20.43074873 21.75 23.25 C22.26449707 23.8056665 22.77899414 24.36133301 23.30908203 24.93383789 C24.35715381 26.06552722 25.40533121 27.19711874 26.45361328 28.32861328 C32.89047519 35.28578989 39.30162243 42.26771823 45.5859375 49.36328125 C47.42796846 51.37520827 49.29469899 53.30820246 51.2265625 55.23046875 C51.77900635 55.7932251 52.3314502 56.35598145 52.90063477 56.93579102 C53.98141165 58.03435063 55.07768726 59.11794563 56.19116211 60.18334961 C58.99986942 63.07250159 60.35765769 65.06644751 60.51171875 69.16796875 C60.01279657 72.90417229 59.84515592 74.13559668 57.25 76.6875 C56.610625 77.34621094 55.97125 78.00492187 55.3125 78.68359375 C54.549375 79.44800781 53.78625 80.21242188 53 81 C51.58096143 82.51943242 50.1772225 84.05218556 48.77368164 85.5859375 C47.22909447 87.27283161 45.67626345 88.95176719 44.12109375 90.62890625 C37.88857411 97.35616233 31.68520235 104.11002615 25.5625 110.9375 C21.57165277 115.38525997 17.53314213 119.78714846 13.45483398 124.15478516 C11.04796431 126.74004136 8.71445571 129.34099403 6.4453125 132.05078125 C5.67960937 132.96214844 4.91390625 133.87351563 4.125 134.8125 C3.46757813 135.62332031 2.81015625 136.43414062 2.1328125 137.26953125 C0 139 0 139 -3.0703125 139.51171875 C-6 139 -6 139 -7.65090942 137.2713623 C-9.19150875 134.67757113 -9.42089907 133.14304834 -9.51513672 130.14648438 C-9.55041473 129.1844812 -9.58569275 128.22247803 -9.62203979 127.23132324 C-9.64106354 126.19592407 -9.66008728 125.1605249 -9.6796875 124.09375 C-9.70153107 123.01806763 -9.72337463 121.94238525 -9.74588013 120.83410645 C-9.78298147 118.5545705 -9.81097427 116.27487086 -9.83056641 113.99511719 C-9.87451889 110.53784416 -9.99322844 107.08815961 -10.11328125 103.6328125 C-10.45081388 85.41861288 -10.45081388 85.41861288 -5.05105591 79.2130127 C-3.59584263 77.80398615 -2.03604453 76.50534066 -0.47314453 75.21679688 C2.15668607 73.20984457 2.15668607 73.20984457 2.95458984 70.37939453 C3.02513019 66.68323193 1.13296889 65.09518146 -1.25 62.375 C-2.05953125 61.43398438 -2.8690625 60.49296875 -3.703125 59.5234375 C-5.7990494 57.10406562 -5.7990494 57.10406562 -7.61929321 55.65319824 C-9.50576216 53.39442239 -9.38035691 51.94484299 -9.38818359 49.02539062 C-9.39764008 48.01424194 -9.40709656 47.00309326 -9.4168396 45.96130371 C-9.41076691 44.87063599 -9.40469421 43.77996826 -9.3984375 42.65625 C-9.40130768 41.53561157 -9.40417786 40.41497314 -9.40713501 39.26037598 C-9.40917747 36.88988744 -9.40363499 34.51938212 -9.39111328 32.14892578 C-9.375063 28.51426617 -9.39095669 24.88071865 -9.41015625 21.24609375 C-9.40817385 18.94531004 -9.40433025 16.64452702 -9.3984375 14.34375 C-9.40451019 13.25308228 -9.41058289 12.16241455 -9.4168396 11.03869629 C-9.40738312 10.02754761 -9.39792664 9.01639893 -9.38818359 7.97460938 C-9.38579681 7.0843103 -9.38341003 6.19401123 -9.38095093 5.2767334 C-8.48149108 -0.09884159 -4.89912384 -0.69368125 0 0 Z " fill="#B5D0C1" transform="translate(67,2)"/>
<path d="M0 0 C24.28955406 -0.68906536 24.28955406 -0.68906536 31.921875 5.578125 C37.12879428 11.08258253 38.18322646 17.54407963 38.52734375 24.96484375 C38.59759766 26.25970703 38.66785156 27.55457031 38.74023438 28.88867188 C38.84094811 30.91348363 38.93753951 32.93837428 39.02905273 34.96362305 C39.47260153 45.84487687 39.47260153 45.84487687 43 56 C46.75521184 58.53068624 49.49247363 59.09849473 54 60 C54 67.26 54 74.52 54 82 C50.7 82.99 47.4 83.98 44 85 C37.90338798 93.92187125 38.75620973 104.49720428 38.65820312 114.93164062 C38.45741241 122.31420148 37.48944285 129.67818303 32.69506836 135.61621094 C25.9200475 141.81090817 18.16938842 142.43127262 9.5 142.1875 C6.365 142.125625 3.23 142.06375 0 142 C0 135.07 0 128.14 0 121 C4.19921875 119.97460938 4.19921875 119.97460938 8.3984375 118.94921875 C11.3084986 118.17806142 11.3084986 118.17806142 13 115 C13.39571179 112.1930903 13.39571179 112.1930903 13.4921875 109.01171875 C13.55792969 107.83029297 13.62367187 106.64886719 13.69140625 105.43164062 C13.81321061 102.94760919 13.92786533 100.46321624 14.03515625 97.97851562 C14.63073085 87.64585822 16.94835616 83.61027896 24.51171875 76.7109375 C26.25991566 74.70119932 26.86612546 73.6675741 27 71 C25.01013201 67.1137153 22.56045874 64.55505021 19.40234375 61.5859375 C13.7568033 55.41781005 13.63436956 49.71666724 13.5625 41.625 C13.48724645 39.13780652 13.40550321 36.65079856 13.31640625 34.1640625 C13.29235718 32.53138428 13.29235718 32.53138428 13.26782227 30.86572266 C13.00233477 28.02498221 12.55950433 26.36664342 11 24 C8.02050148 22.36620684 8.02050148 22.36620684 0 22 C0 14.74 0 7.48 0 0 Z " fill="#A1D3D9" transform="translate(102,0)"/>
<path d="M0 0 C3.98087165 1.60177782 6.65493174 4.38230594 9.61328125 7.3828125 C10.14592087 7.91591034 10.67856049 8.44900818 11.2273407 8.9982605 C12.35339921 10.12733517 13.4770312 11.25883441 14.59838867 12.39257812 C16.29108744 14.10335871 17.99147489 15.80617492 19.69335938 17.5078125 C24.78234495 22.61387316 29.76600396 27.74551786 34.45043945 33.22998047 C37.13471595 36.29615419 40.03565392 39.14146506 42.9375 42 C43.52595703 42.58394531 44.11441406 43.16789062 44.72070312 43.76953125 C46.14479793 45.18204805 47.5720525 46.5913781 49 48 C46.78742017 51.44179084 44.67146181 54.56907887 41.6875 57.375 C39.32173948 59.67117933 37.0829989 61.99691795 34.9375 64.5 C31.40166328 68.60509842 27.70675875 72.55006392 24 76.5 C19.63004712 81.15844793 15.30043132 85.83425877 11.13671875 90.6796875 C9.15340949 92.98332505 9.15340949 92.98332505 6.125 93.3125 C3 93 3 93 1.33688354 91.28381348 C-0.18422668 88.68528345 -0.42106492 87.13777464 -0.51513672 84.14648438 C-0.55041473 83.1844812 -0.58569275 82.22247803 -0.62203979 81.23132324 C-0.64106354 80.19592407 -0.66008728 79.1605249 -0.6796875 78.09375 C-0.70153107 77.01806763 -0.72337463 75.94238525 -0.74588013 74.83410645 C-0.78298147 72.5545705 -0.81097427 70.27487086 -0.83056641 67.99511719 C-0.87451889 64.53784416 -0.99322844 61.08815961 -1.11328125 57.6328125 C-1.45081388 39.41861288 -1.45081388 39.41861288 3.94894409 33.2130127 C5.40415737 31.80398615 6.96395547 30.50534066 8.52685547 29.21679688 C11.15668607 27.20984457 11.15668607 27.20984457 11.95458984 24.37939453 C12.02513019 20.68323193 10.13296889 19.09518146 7.75 16.375 C6.94046875 15.43398438 6.1309375 14.49296875 5.296875 13.5234375 C3.15952599 11.08278567 3.15952599 11.08278567 1.21484375 9.42578125 C-1.08724456 6.72397343 -0.16623071 3.38002441 0 0 Z " fill="#D4CB8F" transform="translate(58,48)"/>
<path d="M0 0 C5.55439924 4.62491379 10.68525669 9.55360964 15.77734375 14.6796875 C16.58869278 15.49245148 17.40004181 16.30521545 18.23597717 17.14260864 C20.8055259 19.71771738 23.37155968 22.2962962 25.9375 24.875 C27.68791929 26.63043946 29.438568 28.38565017 31.18945312 30.140625 C35.46229302 34.42444082 39.73225899 38.71110472 44 43 C42.13441196 47.02491844 39.46824904 49.93671203 36.4375 53.125 C35.34192837 54.29378405 34.24688026 55.46305903 33.15234375 56.6328125 C32.61335449 57.20676758 32.07436523 57.78072266 31.51904297 58.37207031 C29.48245738 60.55464066 27.48886098 62.77393541 25.5 65 C8.50063204 83.96804476 8.50063204 83.96804476 5.0625 84.1875 C2 84 2 84 0 82 C-0.18791915 79.37974279 -0.25185785 76.86608685 -0.22705078 74.24560547 C-0.22734283 73.44552063 -0.22763489 72.64543579 -0.22793579 71.82110596 C-0.22653956 69.16969047 -0.2109647 66.51855406 -0.1953125 63.8671875 C-0.19158341 62.03158726 -0.18873595 60.19598502 -0.18673706 58.36038208 C-0.1790924 53.52372768 -0.1594368 48.68719297 -0.1373291 43.85058594 C-0.11688857 38.91733418 -0.10773919 33.98406313 -0.09765625 29.05078125 C-0.07619167 19.36713485 -0.04204572 9.68357737 0 0 Z " fill="#F08F5C" transform="translate(0,57)"/>
<path d="M0 0 C4.14675094 3.49097872 8.17036165 7.03276415 12 10.875 C13.175625 12.04675781 13.175625 12.04675781 14.375 13.2421875 C16.37199796 15.34022404 18.26046173 17.45555976 20.140625 19.65380859 C24.01252264 24.09031595 28.15361091 28.19560957 32.375 32.296875 C33.95240466 33.84706452 35.52921092 35.39786313 37.10546875 36.94921875 C39.5666562 39.3669066 42.03139085 41.78048576 44.50634766 44.18408203 C46.91142201 46.52291393 49.3005699 48.87704799 51.6875 51.234375 C52.43628418 51.9542157 53.18506836 52.6740564 53.95654297 53.41571045 C54.63475098 54.09031311 55.31295898 54.76491577 56.01171875 55.45996094 C56.61459717 56.04872009 57.21747559 56.63747925 57.83862305 57.24407959 C59 59 59 59 58.79125977 61.10064697 C57.73759808 63.62987391 56.245594 65.00694396 54.25 66.875 C50.899415 70.0930079 47.90030248 73.3746219 45 77 C43.37116382 75.60480225 41.74260825 74.209276 40.11520386 72.81240845 C38.71237723 71.61039909 37.30706279 70.41128673 35.89920044 69.21517944 C-0.88080826 37.84942669 -0.88080826 37.84942669 -2.49609375 23.15234375 C-2.97521321 15.34714226 -1.88119143 7.56893944 0 0 Z " fill="#E2B474" transform="translate(0,24)"/>
<path d="M0 0 C2.30859375 1.6875 2.30859375 1.6875 4.4375 4 C5.21351562 4.83015625 5.98953125 5.6603125 6.7890625 6.515625 C7.51867187 7.33546875 8.24828125 8.1553125 9 9 C9.84691406 9.95132812 9.84691406 9.95132812 10.7109375 10.921875 C11.81489764 12.18200511 12.9121777 13.44800822 14.00390625 14.71875 C16.5346166 17.6109904 19.13852651 20.43074873 21.75 23.25 C22.26449707 23.8056665 22.77899414 24.36133301 23.30908203 24.93383789 C24.35715381 26.06552722 25.40533121 27.19711874 26.45361328 28.32861328 C32.89047519 35.28578989 39.30162243 42.26771823 45.5859375 49.36328125 C47.42796846 51.37520827 49.29469899 53.30820246 51.2265625 55.23046875 C51.77900635 55.7932251 52.3314502 56.35598145 52.90063477 56.93579102 C53.98141165 58.03435063 55.07768726 59.11794563 56.19116211 60.18334961 C59.0081455 63.0810147 60.3551667 65.06537423 60.49609375 69.1796875 C59.83419232 74.27684972 58.52289296 75.47710704 55 79 C48.9982502 74.06035761 43.50871024 68.66194683 38.02978516 63.16015625 C36.50663612 61.63165942 34.97822998 60.10856762 33.44921875 58.5859375 C25.30805535 50.44883337 25.30805535 50.44883337 21.65234375 46.1015625 C18.4759129 42.37869001 14.9732681 39.07878788 11.41015625 35.734375 C9.58396457 33.99789294 7.75989723 32.25920403 5.9362793 30.52001953 C4.68400491 29.33708933 3.42215859 28.16421316 2.15112305 27.00146484 C-8.37267725 17.34120452 -8.37267725 17.34120452 -9.91845703 11.57226562 C-10.10614807 4.44644115 -10.10614807 4.44644115 -7.61914062 1.19433594 C-5.02528858 -0.71898195 -3.12145543 -0.44197599 0 0 Z " fill="#A1D2D9" transform="translate(67,2)"/>
<path d="M0 0 C4.88587983 4.10064915 9.50838815 8.34788872 14 12.875 C14.6094043 13.48706299 15.21880859 14.09912598 15.84667969 14.72973633 C20.92639551 19.86313026 25.98343998 24.97515998 30 31 C29.58226318 31.44279297 29.16452637 31.88558594 28.73413086 32.34179688 C26.80044849 34.39314917 24.86896851 36.44656317 22.9375 38.5 C22.28072266 39.19609375 21.62394531 39.8921875 20.94726562 40.609375 C16.99301152 44.81685721 13.12956011 49.0860435 9.34985352 53.45117188 C7.14191136 55.98457485 7.14191136 55.98457485 4.125 56.3125 C1 56 1 56 -0.67204285 54.29373169 C-2.22292424 51.61495114 -2.37453257 50.06543342 -2.37231445 46.98779297 C-2.37854324 45.99351288 -2.38477203 44.99923279 -2.39118958 43.974823 C-2.38197983 42.90805328 -2.37277008 41.84128357 -2.36328125 40.7421875 C-2.36377975 39.64278839 -2.36427826 38.54338928 -2.36479187 37.41067505 C-2.36245285 35.08903188 -2.35273455 32.76738611 -2.33618164 30.44580078 C-2.31254382 26.88160695 -2.31562783 23.31815876 -2.32226562 19.75390625 C-2.31669045 17.49999552 -2.30958159 15.24608795 -2.30078125 12.9921875 C-2.30169266 11.92136932 -2.30260406 10.85055115 -2.30354309 9.74728394 C-2.29401108 8.75930817 -2.28447906 7.7713324 -2.2746582 6.75341797 C-2.26774712 5.44581009 -2.26774712 5.44581009 -2.26069641 4.11178589 C-2 2 -2 2 0 0 Z " fill="#E2B474" transform="translate(60,85)"/>
<path d="M0 0 C5.17072715 4.35606831 10.15119832 8.85075022 15 13.5625 C15.69222656 14.20896484 16.38445312 14.85542969 17.09765625 15.52148438 C17.74605469 16.15505859 18.39445312 16.78863281 19.0625 17.44140625 C19.65160156 18.00545166 20.24070313 18.56949707 20.84765625 19.15063477 C22 21 22 21 21.8046875 23.53100586 C20.35796871 27.96992185 17.91598101 30.68629994 14.1484375 33.26953125 C5.47003051 37.60873475 -4.60338278 36.25057646 -14 36 C-14 29.07 -14 22.14 -14 15 C-9.80078125 13.97460938 -9.80078125 13.97460938 -5.6015625 12.94921875 C-2.6915014 12.17806142 -2.6915014 12.17806142 -1 9 C-0.54605448 6.72087062 -0.54605448 6.72087062 -0.375 4.3125 C-0.25 2.875 -0.125 1.4375 0 0 Z " fill="#D4CB8F" transform="translate(116,106)"/>
<path d="M0 0 C7.64396136 3.61644118 14.92901655 9.50916592 19 17 C21.03424557 25.6712286 21.5544009 38.04988623 17 46 C-5.15881613 27.12367612 -5.15881613 27.12367612 -6.37890625 18.7421875 C-6.39566718 11.47669046 -4.32421073 5.78973821 0 0 Z " fill="#B4D0C2" transform="translate(121,82)"/>
<path d="M0 0 C4.07838259 3.45986708 8.13291145 6.9277498 12 10.625 C13.175625 11.72714844 13.175625 11.72714844 14.375 12.8515625 C16 15 16 15 15.91796875 17.0703125 C14.31171332 20.44686648 12.02816338 22.82701239 9 25 C5.8125 25.625 5.8125 25.625 3 25 C0.17983384 22.06061338 -0.3664829 20.03439863 -0.29296875 16.015625 C-0.28330078 15.08105469 -0.27363281 14.14648438 -0.26367188 13.18359375 C-0.23853516 12.21550781 -0.21339844 11.24742188 -0.1875 10.25 C-0.17396484 9.26644531 -0.16042969 8.28289062 -0.14648438 7.26953125 C-0.11118726 4.84579585 -0.06188054 2.42317855 0 0 Z " fill="#F08F5C" transform="translate(58,116)"/>
<path d="M0 0 C4.89434213 4.09526587 9.70720334 8.26357085 14 13 C14 13.33 14 13.66 14 14 C9.38 14 4.76 14 0 14 C0 9.38 0 4.76 0 0 Z " fill="#E2B474" transform="translate(102,128)"/>
</svg>
