<svg xmlns="http://www.w3.org/2000/svg" viewBox="0 0 697 883" xml:space="preserve">
  <path fill-opacity="0" d="M633 884h-22l-34-23c-1-7-6-12-10-18h-1v-1l-8-19-15-36v-1l-2-6-21-49-2-3 2-19-19-14-33 10 2 8v7c4 4 1 9 0 13l-14 46-2 2-12 4-18 3-3-57v-2l-1-6-2-32-2-15-3-23v-21l-1-16v-6l-1-3-2-46-3-12 2-6-2-15v-43l5-1h21l1-7-6-2a1607 1607 0 0 1-22-6l-2-15-1-17v-16l1-5-2-20-2-5-2-2-3-16-3-2v-15l2-6-6-7-6 8c6 4 4 10 3 15l-4 18-2 9h-1l-1-12 1-23c0-5 2-10-4-13v-2l-1-24c2-6-1-9-6-11l-5 1-2-3-5-23-10-37-3-6-3-14-7-28-9-38-1-3-1-3-9-38v-2l-1-19c0-3 2-5 0-7l-1 8-2 6-4-5-1-6V51l-1-5V27c0-3-1-3-3-3l-12 1h-10l-15-1-7-3v16c0 7 4 9 9 8l3-1h18l1 3c4 0 9 2 13-2l1-20 1 4v30l1 26-2 12-7 1V88l2-2-5-6v8h-4v1h2l2 6v21l-5 18-4 10s1 0 0 0l-5 17-17 62-10 31-14 44c-5-3-9-1-13 1-1 1-3 3-3 5l1 22-2 5c-4 2-4 5-4 9s1 8 3 11v9l-1 10c0 3-1 6-4 7l-2-11-2-13c-1-6-3-12 0-18l2-6h-1l-2-3-4-3-3 2-4 5c3 6 5 13 2 20l-2 8c-1 5-1 13-5 16-6 5-3 11-4 16l2 14-1 29-1 3v6c1 7 0 11-4 13l-5 1-12 1c-8-1-8-1-10 6l3 4 6-3 15 3 5 3-2 44c-3 6-2 12-2 18l-3 48v10c-1 2-2 4 1 5l-3 6-1 33v8l-1 6-5 17-2 3c4 6 2 11 2 17l-1 21-1 26-1 20-1 3v3l-1 1-3 52-2 40-2 10-2 6-1 7-11 3-28 6-7-17-18-57-2-10c3-15 3-15-9-21l-3-1c-6-4-13-6-20-2l-13 4-1 3-1 16-14 32-24 54-1-1V1h697l-1 883-17-35v-15l-12-8-28 7c3 8 3 17 0 26l-1 3-2 8-4 14z"/>
  <path fill="#182451" d="m2 884 24-54 14-32 1-16 1-3 13-4c7-4 14-2 20 2l3 1c12 6 12 6 9 21l2 10a7336 7336 0 0 0 25 74v1H2z"/>
  <path fill="#284B86" d="M372 884h-31v-8l1-63v-2h3c5 2 9 3 13-1h2l28-8c0 7 1 8 5 7l7 15-5 2c-8 2-8 2-5 10v3l-2-2-5 12-5 18v1l-3 3-3 13z"/>
  <path fill="#0C6E87" d="M419 884h-13c2-7 3-14-3-19l4-7v-5c-3-3-3-10 0-12l7-4c-4-3-4-6-2-9l-1-1 2-10c2-8 6-15 4-23l2-1 32-8 1 5-11 35 1 7c-4 2-9 3-11 6s0 8 0 12l-3 4-9 30m-11-32s1 0 0 0z"/>
  <path fill="#2D2C52" d="M260 884h-3c-3-3-5-7-10-5l-1-2 2-3-1-2-9 5h-1l1-7c9-2 10-3 8-9h-3c4-5 3-10 3-15l2-8 1-58v-33l1-8-2-5-5 2-1 4 1-13 1-21c5-1 8-3 7-9v-7l1-10-1-9v-2l-3-16v-3l1-2h1l1 8 1 8h4l4-1-1 1-1 3 1 2 1 3v4l1 3v1l-2 26v38l2 3-1 3-1 3 1 4-2 5v68l1 4-1 3-1 3-1 38 3 3 1 3z"/>
  <path fill="#2A3056" d="M220 884h-14c1-10 2-18 0-27h-1l-3 26 2 1h-8l2-22v-4l2-3h6l1-8v-30l1-26v-12l2-30v-4l1-2 8 4-1 8 3 1h-4v1h2c-4 1-2 3-2 5l1 5-2 4v6l-1 30-1 28 1 14v1l-1 12 6-5v27z"/>
  <path fill="#284B86" d="m633 884 4-14 6-6 9-1h1l13-3 9-2a203 203 0 0 1 1 12l-3-6-2 9 1 2h-1c-3 2-2 3-1 5l1 4h-38z"/>
  <path fill="#1F2952" d="m341 876-1 8h-1c1-9-6-7-10-11l-1 11h-3v-13c0-2-2-3-3-4l-4 4 1 1-5-1 1-5c-4 5-7 6-12 4l-2-7 1-1c0-6 0-6-6-5l-11 4-4-3v-12h3l-1 3v2l1 4h3l12-3 2-1h1l1-1 22 2 2 4c1 3-2 8 2 11l9 4c2 1 3 2 3 5z"/>
  <path fill="#373858" d="M490 884h-4l-2-20c0-2-3-3-5-4l-3 4v20h-5l-1-15-5-5-4 4v16h-5l-1-14c-2 1-2 2-2 3 2 5-1 6-5 5l1-2-1-2v-3l1-10 31-8 16-4 2 1 1 4 1 2v3c-3-4-6-5-8-2l-2 4v23m-36-20h-1 1m-2 2s1 0 0 0z"/>
  <path fill="#313657" d="m259 881-3-3 1-38 1-3 25-9-1 7c-5 4-6 9-6 14l-2 35h-2v-37l-2-5c-2 1-5 2-5 4-2 4-2 9-3 14v11l1 5c1 4 0 5-4 5z"/>
  <path fill="#1E254F" d="M490 884a280 280 0 0 1 2-27c2-3 5-2 8 2l1 12c0 6 0 6 7 5l18-4 2 1 6 7-6-2-1 6h-37z"/>
  <path fill="#1A2754" d="M403 865c6 5 5 12 2 19h-20c1-5-1-7-5-8l3-8 7-12c1-2 3-3 5 0l8 9z"/>
  <path fill="#2A3056" d="m274 884 2-35c0-5 1-10 6-14l1-7 1-1h2l-1 2v10l-1 5-1 2h-2v12l3 3c-2 3-2 5 0 7l17-5 2 7h-1l-5 2-1 1h-1l-8 2-4 3 3 3-4 3h-8z"/>
  <path fill="#182451" d="m198 862-2 22h-8v-8c-5-1-9-2-12-8-1-4 0-8-2-11h2c4 3 7 3 10 2l-6-2h3l1-1h2l2 1 7-1 3 2v4z"/>
  <path fill="#ADE19A" d="m677 869-2-11a699 699 0 0 1-3-15l8 7 17 34h-15l-5-15zm-100-7 34 22h-34v-6l-3-17 3 1z"/>
  <path fill="#1E254F" d="M259 881c4 0 5-1 4-5l-1-5v-11c1-5 1-10 3-14 0-2 3-3 5-4l2 5v37h-12l-1-3z"/>
  <path fill="#272C54" d="M174 857c2 3 1 7 2 11 3 6 7 7 12 8v8h-17v-5h2l-1-3c-4-1-3-4-3-7l1-10c-5 2-9 1-11 6l-4 7-2 12h-1l1-10 1-7 2-6 15-5v-8l1 1 2 4v4z"/>
  <path fill="#ED6622" d="M557 884h-3v-13l-2-4-3 3v4a76 76 0 0 1-4-15c-5 7-4 14-4 20l-2-1-3-26 6 1 4 2 6 4 11 9v4l-1 4-5-4v12z"/>
  <path fill="#2A3056" d="M303 870c5 2 8 1 12-4l-1 5 5 1-1-1 4-4c1 1 3 2 3 4v13h-24c4-3 2-5 0-8l2-6z"/>
  <path fill="#1F2952" d="m238 870-1 7 1 7h-8l-1-3 1-29 9 1v4l-1 13z"/>
  <path fill="#1C5794" d="m419 884 9-30 3-4h1v6c0 10 1 19-4 28h-9z"/>
  <path fill="#1A2754" d="M476 884v-20l3-4c2 1 5 2 5 4l2 20h-10z"/>
  <path fill="#26508B" d="m153 874-1 10h-38v-1l28-6 11-3z"/>
  <path fill="#1E254F" d="M220 884v-27l3-2c2 2 4 4 4 6v23h-7z"/>
  <path fill="#1F2952" d="M461 884v-16l4-4 5 5 1 15h-10z"/>
  <path fill="#2B2A4B" d="M428 884c5-9 4-18 4-28h1l24-7 3 1a250 250 0 0 1-14 5c-14 4-14 4-13 19l-1 8 16-3c4 0 7-1 5-6 0-1 0-2 2-3l1 14h-2l-4-4-14 4h-8z"/>
  <path fill="#313657" d="M159 865c2-5 6-4 11-6l-1 10c0 3-1 6 3 7l1 3h-2v5h-4c1-3 0-4-3-4l-5-15z"/>
  <path fill="#8F4236" d="M301 876c2 3 4 5-1 8h-18l4-3-3-3 4-3 8-2 6 3m-11 3h-1v1l3-1h1v-1l-3 1z"/>
  <path fill="#25548F" d="m677 869 5 15h-11l-1-4c-1-2-2-3 1-5h1l-1-2 2-9 3 6h1v-1z"/>
  <path fill="#0C6689" d="m383 868-3 8c4 1 6 3 5 8h-13l3-13 3-3v-1l5 1z"/>
  <path fill="#5F3947" d="m159 865 5 15-9 4h-2l2-12 4-7z"/>
  <path fill="#3D2B41" d="M541 879c0-6-1-13 4-20l1 6 1 19h-4l-2-5z"/>
  <path fill="#2F3459" d="M227 884v-23c0-2-2-4-4-6 2-2 5-2 7-3l-1 29 1 3h-3z"/>
  <path fill="#1E254F" d="m204 884-2-1 3-26h1c2 9 1 17-1 27h-1z"/>
  <path fill="#293458" d="m328 884 1-11c4 4 11 2 10 11h-11z"/>
  <path fill="#3D2B41" d="M549 874v-4l3-3 2 4v13h-5v-10z"/>
  <path fill="#ED6622" d="M577 878v6h-10l-1-6 2-1 9 1z"/>
  <path fill="#D37348" d="m541 879 2 5h-3l-3-2a14 14 0 0 0-3-2l-6-7 1-1 10 6 2 1z"/>
  <path fill="#373858" d="m238 884-1-7h9l1 2-1 5h-8z"/>
  <path fill="#663838" d="M557 884v-12l5 4 1 8h-6z"/>
  <path fill="#1E254F" d="m246 884 1-5c5-2 7 2 10 5h-11z"/>
  <path fill="#8F4236" d="m436 884 14-4 4 4h-18z"/>
  <path fill="#D37348" d="m527 884 1-6 6 2 3 2 1 2h-11z"/>
  <path fill="#B56441" d="M549 874v10h-2l-1-18 3 8z"/>
  <path fill="#663838" d="m566 878 1 6h-2l-2-12v-4l1-1 2 2v9z"/>
  <path fill="#A8422A" d="m155 884 9-4c3 0 4 1 2 4h-11z"/>
  <path fill="#B56441" d="m563 872 2 12h-2l-1-8 1-4z"/>
  <path fill="#1E254F" d="m538 884-1-2 3 2h-2z"/>
  <path fill="#182450" d="M182 455c4-2 5-6 4-13v-6l1-3 1-29-2-14c1-5-2-11 4-16 4-3 4-11 5-16l2-8c3-7 1-14-2-20l4-5 3-2 4 3 2 3h1l-2 6c-3 6-1 12 0 18l2 13 2 11c3-1 4-4 4-7l1-10 9-4v2-15c-4 2-8 3-9 8-2-3-3-7-3-11s0-7 4-9l2-5-1-22c0-2 2-4 3-5 4-2 8-4 13-1l2 2-3 23-7 14 24-11 12-7 6-2 21-10 4-3c0-6 3-11 5-16l1-25c-1-6 1-8 6-10h3v25c0 4 0 7 3 10 2 2 3 5 0 7v5l-1 2 2 13v1l2 11c1 3 3 3 4 0l1 4-3 12a122 122 0 0 1-8-14l-6 14c3-2 4-5 5-7l3-2 5 12h-1v2l-1 12-4-5v22l4 3 1 1-1 5-5 12-12 6c-4 1-5 4-4 8l1 3-14 6 1-8 1-1 7-10h-1l-5 2-1-1 2-3 8-6v-6l-6 1c3-2 5-5 5-8a215 215 0 0 0 2-13l-3-13-4-5 1-2 6 4 1-1c-1-2-1-4-3-5l-15-6 4-2 9 2 2-4 3 1v-6l-4 2v-7l7-5-1-7v-5l-58 28c-9 3-10 6-7 16 3 0 6-1 7-5l1-7h3l2 7 2-12h1l2 7v5l4-5v3l-3 7-8 6 1-4c-11 5-11 2-10 15l9-11-2 6-2 5-3 7-1-1-5 14a111 111 0 0 0 0 11c-1 4 2 3 4 2 0 6 2 10 1 15l-16 8-2-4-4 1-1-14h-1l-1 18 2 4 3 4c-2 2-2 4 1 5 3 2 2 4-1 6l-5 4h4l-6 5-10-2-14 4v-2m114-82v9c5-1 8-3 7-8v-12l-3-7c-6 6-3 12-4 18m-90 51-1-15-2-3-3 3-1 19c7 3 7 3 7-4m-10-14-1-5h-2c-4 8-1 17-1 26 2-1 4-3 4-5v-16m23 1c-1-8 2-16-3-23v22l-1 3-3 5c6 1 7-2 7-7m86-46v14h1v-21h-1v7z"/>
  <path fill="#293458" d="m182 457 14-4c-2 8-1 9 6 9 5 0 6-3 4-7l6-5 4-1 41-18 22-10a1371 1371 0 0 0 16-6v10l-85 37c-5 2-5 6-3 9 4 11 4 22 4 33v6a149 149 0 0 1 8-1l6-7v1l8-10 7 7v8c-5-1-8 2-8 8l-1 44 1 11c-5 2-10 5-12 10l-1 2-5 5-5 1v1h3l-1 1-12-5 1-26v-32h-10l-1-9h3c3-1 8 3 9-3l2-10 1-9-10 2-2-1 1-4v-30l-9 5-4-2c4-3 1-7 2-10z"/>
  <path fill="#9FE3BA" d="m320 154 1 3v4l-1 2h1v-2h1l9 37 7 28 3 15 4 33h2l-1-10-2-18 10 37 5 23-6 1-3-2 1-20-8 1v8l-2-1-2-2-1-1 2-12 2 6h2l-3-9 1-2-2-10-1 1v9h-2l-6-38h-1l4 30c1 2 0 4-1 5-3 1-2 3-1 5v13l5 25c1 3-3 6 2 7v-9l5 4h2l1 3 3-7c1 4-2 8 2 10l2-6 5 15 11 20v2a3967 3967 0 0 1-51-46l-4-19v-13l5 23h1v-16h2c1 6-2 11 2 15v-15l2 6 2 14v-14c0-5-3-8-7-11l3-18-3-22-2 1 3 21h-3l-7-46-6-44-4-13v-32l-1-8v-4l4 3v4l9 54 4 23-3-2-11-69h-2l11 72v9l2 10 1 1 2 14 1 4 2-6h1l4 17h1l-2-19v-5c2-3 1-5 0-7l-4-2-1 3-1-1 3-19-1-2a1214 1214 0 0 1-13-77l10 42h1v-4m7 39 1 4 8 50 2-1-3-18-7-33-1-4-4-11-1 1 5 12m6 119 2 4 1-1-3-8v5z"/>
  <path fill="#ADE19A" d="m520 731 21 49 2 6-13 5 7 25 4 7 2 2h3l2-12 1-7-8-5 2-14 15 36 7 19-16-10-25-18-4-6-1-6v-1l-9-51-4-19v-3l3 3 2 5v-5c5-1 3 3 5 5l3 7-1-7 2-5z"/>
  <path fill="#26508B" d="m442 832-1-7 11-35-1-5 3-4 2-2 14-46 6 3 1 3c4 1 3 5 3 7v13l-2 2-3 20 1 1-6 14 2 23c0 4-1 5-4 6l-26 7z"/>
  <path fill="#1A2754" d="M480 759v-13c0-2 1-6-3-7l-1-3-6-3c1-4 4-9 0-13v-7l-2-8 33-10 19 14-2 18-15-14v6c-4 0-5 1-5 4 1 3 0 6-1 9l-1 2c0-6-4-5-5-4l-3 11-1 11c1 5-2 7-7 7z"/>
  <path fill="#1E254F" d="m397 389 2 2-3 13h-1l-6-13-6 19h1l5-13 6 12-1 4 1 10v8l1 13 1 2-1 1h-12l-2-1-1-1c3-8 3-15-1-22l-2 8-1 8-5-6-2-31 2-20c1-8 3-15-2-23l5 3-1-4h3l-1 23 1 12h1l2-9 4-18c1-5 3-11-3-15l6-8 6 7-2 6v15c1 8 1 16 6 23v-5m-11 35-1-8h-2l3 29h6l2-3-1-13c0-6-3-7-7-5m-11-3v-18h-1v29h1v-11z"/>
  <path fill="#25548F" d="M302 111v5l-4 2-3 21-5 36-5 38-2 2c2-8-2-13-4-19l-3-1-2-6 2-10a1592 1592 0 0 1 4-36l1 1 3-10 5-18 13-5z"/>
  <path fill="#182450" d="M174 642v-8l8-4 1 4v14h18c2-16-1-32 6-47l1 1v5a10980 10980 0 0 0-1 32v1l-1 2v3a450 450 0 0 0 0 22l-1 6-3 5-2 3v-14h-17l2-7-5-8-2-8c0-4-1-5-4-2z"/>
  <path fill="#1A2754" d="m680 849-8-6-1 2-3 1c-3 0-7 0-8 2-3 4-5 10-7 15h-1v-7l-12 3c3-9 3-18 0-26l28-7 12 8v15z"/>
  <path fill="#26508B" d="M279 159c-2 7-3 13-3 20l-2 10 2 6 4 13 2 12v2l-1 5-3 5c-3-3-5-2-6 2l-2 14-2-3 2-14 1-6 3 2c5-1 6-6 5-14l-4 3c-2 2-2 4-3 7l-2-9h-2l-3 20a6318 6318 0 0 0-4 34l-3 13-2 1c5-21 10-63 8-65l-6 8v-2l17-61 4-3m-5 53v1h1l2-1a303333 303333 0 0 0-3 0m-9 2s1 0 0 0z"/>
  <path fill="#D2480E" d="m160 811 3-52 1-1 14-5v17l-1 1-2 17-3 4c-5 1-6 4-6 9l-1 3-5 7z"/>
  <path fill="#F4AC5A" d="M421 729v2l-1 3h-1v-11l-1 21c-1 4 1 10-4 13l-3-6-1-19-1-25v-23l9 7 2 32 1 6z"/>
  <path fill="#C54B17" d="M177 589v-9l3-48 6-4 4 1-2 4v22l-1 30-1 1-9 3z"/>
  <path fill="#663838" d="m160 811 5-7 3 4c1 4 3 7 8 8l1 6-1 23-2 8-2-5c4-6 0-8-4-10-3-3-5-2-6 1l-4 12 2-40z"/>
  <path fill="#F7AF5C" d="m406 549 3 12 2 46-8-5-1-1-1-15v-17l-1-3v-21l6 4z"/>
  <path fill="#F5AD64" d="m412 751 2 6c5-3 3-9 4-13l1-21v11h1l1-3 3 57-10 3-2-23v-17z"/>
  <path fill="#F4AC5A" d="M412 610v6l1 16v21h-2c-1-4-3-4-5-2l-2-2-1-28-2-15h2l7 5 2-1z"/>
  <path fill="#1F2952" d="m541 823-4-7-7-25 13-4c0-1 0 0 0 0l-2 14 8 5-1 7-2 12h-3l-2-20h-1l1 18z"/>
  <path fill="#D2480E" d="m193 494-1 4-1 5-5-2-4 13 2-44 9-6v30z"/>
  <path fill="#F4AC5A" d="m406 485-1 43-2-9-6 1v-9l-1-32 10 6z"/>
  <path fill="#21274D" d="m382 446 2 1 3 2 9 1-1 11-3 1-6 1v1c8-2 14 1 19 6l4 2v2l-1 1-12-10v10h-10v-7l-7-9 1-4-4-11 4 3 2-1m4 10 4 1c-1-4-2-6-4-1z"/>
  <path fill="#663838" d="m165 752 1-20c6-1 8-4 9-9l4-17 1 5-2 36-13 5z"/>
  <path fill="#E7E0CE" d="m261 24 15 1h10l-2 19h-21l-1-9-1-11m21 11-1-2c-3 2-3-1-4-3l-2-3-3 5-3-2c-4 5-4 5 6 13l7-8z"/>
  <path fill="#D2480E" d="m182 630-7 3v-32l3-6 6 1v29l-2 5z"/>
  <path fill="#1F3165" d="m302 111-13 5V95l-2-6v-1h5v10l2 6 2 1 4-7 3-1 4 5 2-6 1-8c2 2 0 4 0 7l1 19v2h-2l-1-1-2-1-4-3z"/>
  <path fill="#D80F19" d="m284 44 2-19 12-1v21c-4 4-9 2-13 2l-1-3z"/>
  <path fill="#182451" d="m370 350-11-20-1-15c0-3 0-5 3-6l5-1 2 16v15c1 4 3 7 2 11z"/>
  <path fill="#21274D" d="m182 514 4-13 5 2 1-5 2 1-1 10-1 7h9c-1 6-6 2-9 3h-3l1 9v1l-4-1-6 4c0-6-1-12 2-18z"/>
  <path fill="#663838" d="m167 706 1-21 13-4v19l-2 4-12 2z"/>
  <path fill="#1F2952" d="m414 791 10-2 18-4 12-4-3 4a1400 1400 0 0 1-34 9l-29 8a730 730 0 0 1-27 5l3-2h1l9-2h2l4-2h2l2-1 2-1h3l2-3v-4h4l2 4 17-5z"/>
  <path fill="#D2480E" d="m167 706 12-2v2l-4 17c-1 5-3 8-8 9v-26z"/>
  <path fill="#26508B" d="m236 299-2-1a1098 1098 0 0 1 15-42l1 9h1l5-28-1-1 3-10c2 1 5 2 3 4l-2 2-4 28-3 16h-1v-9l-5 1c1 5-3 7-4 11l-6 20z"/>
  <path fill="#284B86" d="M182 457c-1 3 2 7-3 10l-15-3-6 3-3-4c2-7 2-7 10-6l12-1 5-1v2z"/>
  <path fill="#313657" d="m158 851 4-12c1-3 3-4 6-1l3 10v8l-14 5 1-10z"/>
  <path fill="#2B2A4B" d="m185 660-2 7h-2l-10 4-3-6 5-17 1-6c3-3 4-2 4 2-2 2-3 3-3 5l-1 8 6-5 5 8z"/>
  <path fill="#BC4922" d="m168 665 3 6 10-4v14l-12 4c-1-6 1-11-3-17l2-3z"/>
  <path fill="#E68440" d="M411 653h2a569 569 0 0 1 5 38l-10-7s-1 0 0 0l-2-8 3-10 2-13m3 27-2-5h-2v6c1 3 3 3 4-1z"/>
  <path fill="#EBA052" d="M370 350c1-4-1-7-2-11v-23l1-1 3 4 1 24v2c6 3 4 8 4 13h-1a186 186 0 0 0-6-6v-2z"/>
  <path fill="#D80F19" d="m261 24 1 11 1 10c-5 1-9-1-9-8V21l7 3z"/>
  <path fill="#A68672" d="M409 474v-2l18 3 3 3-7 5-13 1-1-10z"/>
  <path fill="#E68440" d="m395 461 1-11h3l4 4 2 15c-5-4-11-7-19-5v-1l6-1 3-1z"/>
  <path fill="#2B2A4B" d="m549 832 16 10 1 1h1c4 6 9 11 10 18h-3l-4-5-1-1-1-1-8-10h3v-1l-7-3-5-5-2 1-3-3 3-1z"/>
  <path fill="#182450" d="m184 596-6-2c-3 0-2-2-1-4a87 87 0 0 1 10-5h1l11 1 12 5-3 2-23-4-2 3 1 4z"/>
  <path fill="#B56441" d="m396 409-7-12-5 13h-1l6-19 6 13h1l3-13 2 6-2 6 4 13-2 5-4-7c3-3 0-4-1-5z"/>
  <path fill="#2B2A4B" d="m397 521 6-2 2 9 3 15-3-4-2-14h-2v8a3684 3684 0 0 1-2 0l-3-10 1-2z"/>
  <path fill="#293458" d="M216 351c1-5 5-6 9-8v15-2l-8 4-1-9z"/>
  <path fill="#1F758D" d="M503 719v-6l15 15 2 3-2 5 1 7-3-7c-2-2 0-6-5-5l-3-10-2 3-3-5z"/>
  <path fill="#1F2952" d="m397 414 4 7 1 17v10h-1l-1-2-1-20-2-4v-8z"/>
  <path fill="#53AE98" d="m309 116 2 1a3837 3837 0 0 1 9 41h-1l-10-42z"/>
  <path fill="#1272A6" d="M361 309c-3 1-3 3-3 6l1 15-5-15-1-8 6-1 2 3z"/>
  <path fill="#1F3165" d="m640 859 12-3v7l-9 1-6 6 2-8 1-3z"/>
  <path fill="#44384F" d="m409 474 1 10-4 1-10-6-11-1v-1l1-2h10l11 9 1-9 1-1z"/>
  <path fill="#B56441" d="M397 389v5c-5-7-5-15-6-23l3 2 3 16z"/>
  <path fill="#1C5079" d="m258 226-3 10-6 20-1-2a920 920 0 0 1 10-28z"/>
  <path fill="#44384F" d="m405 539 3 5-2 5-6-4-2-1 2-4 1-3 4 2z"/>
  <path fill="#182450" d="m303 97-3 1-1-1 2-12-1-26a131 131 0 0 1 1-12l1 4v40l1 6z"/>
  <path fill="#53AE98" d="m344 246 2 18 1 10h-2l-4-33 3 5z"/>
  <path fill="#5F3E49" d="m403 416-4-13 2-6 2 19z"/>
  <path fill="#774E4E" d="m372 319-3-4-1 1v7l-2-15c5 2 8 5 6 11z"/>
  <path fill="#A68672" d="m400 446 1 2h1a313 313 0 0 1 1 6l-5-4-1-3v-1h3z"/>
  <path fill="#C54B17" d="m165 752 13-5v1l-1 2a2817 2817 0 0 0-12 2z"/>
  <path fill="#5A7298" d="m299 97 1 1-4 7-2-1-2-6 7-1z"/>
  <path fill="#663838" d="m164 755 13-5 1 1v2a6545 6545 0 0 0-14 2z"/>
  <path fill="#F59332" d="m412 610-2 1-7-5v-4l7 5 2 3z"/>
  <path fill="#E59357" d="m430 478-3-3 6 2-1 7-2-6z"/>
  <path fill="#284B86" d="m430 478 1 6h-8l7-6zM292 88h-3v-8l5 6-2 2z"/>
  <path fill="#1C5079" d="m279 159-3 2 4-17-1 15z"/>
  <path fill="#5A7298" d="m301 46-1 2V29l-1-4-1-1c2 0 3 0 3 3v19z"/>
  <path fill="#1C5079" d="m284 134-3 10c0-4 1-7 3-10z"/>
  <path fill="#1F3165" d="m301 85-2 12 2-12z"/>
  <path fill="#F5AD64" d="M421 729z"/>
  <path fill="#53AE98" d="m322 160-1 1v-4l1 3z"/>
  <path fill="#1A2754" d="m640 859-1 3 1-3z"/>
  <path fill="#284B86" d="M287 88v1h-2v-1h2z"/>
  <path fill="#ADE19A" d="M567 843h-1 1z"/>
  <path fill="#272C54" d="M341 876c0-3-1-4-3-5l-9-4c-4-3-1-8-2-11l-2-4-22-3v-10l-1-3v-16l-12 4-4-3v-3l6-18 2-4 4 2 6 13 2 3h16l2 2 13 7-1-5 4 8 1-12v-1h1l-1 63m-8-36 7 5v-15l-12-9c1 5 2 9 1 12-2 4 0 6 4 7m-1 3v1l-1 6c0 7 5 7 9 10 2-14 1-14-8-17m-21-7c3 1 6 2 7-3l3-15-4 1c-7 0-9 2-8 9v8h-2v1l4-1m-11-23-3-11-2 1-1 6c-2 2-3 4 0 6 1 1 4-1 6-2z"/>
  <path fill="#A72A2A" d="M344 811h-2v-28l1-70 5 1 5-6v27l2-1 1 23v19l1 6v4l1 24c-4 4-8 3-13 1h-1z"/>
  <path fill="#25548F" d="m388 802 29-8c2 8-2 15-4 23l-2 10-4 3v-4l-10-16-4-1c-4 1-5 0-5-7z"/>
  <path fill="#155F88" d="m407 830 4-3 1 1c-2 3-2 6 2 9l-7 4c-3 2-3 9 0 12v5l-4 7-8-9c-2-3-4-2-5 0l-7 12-5-1 5-18 5-12 2 2v5c9 1 14-3 15-11l2-3z"/>
  <path fill="#1A2754" d="m407 830-2 3c-1 8-6 12-15 11v-8c-3-8-3-8 5-10l5-2-7-15 4 1 10 16v4z"/>
  <path fill="#F5AD64" d="M357 783v-2a100 100 0 0 0 0-8l2-1v5l1 30v3h-2l-1-25v-2z"/>
  <path fill="#BC4922" d="M342 799v14l-1-1v-3h-1v6l-1 3-3-13h5v-7h1v1z"/>
  <path fill="#155F88" d="m378 868-3 3 3-3z"/>
  <path fill="#BC4922" d="M344 811h1-1z"/>
  <path fill="#155F88" d="M390 836v1-1z"/>
  <path fill="#1A2754" d="m442 832 26-7c3-1 4-2 4-6l-2-23 6-14c6 3 7 8 10 13l1 4-1 11 1 8c7-2 7-3 6-9h2l1 7 8-4h8c3-1 5-2 4-6l1-3 2-1 1 6 4 6 2 7h-4l-17 4-20 5-36 9-8 4-9 7h-1c0-4-2-9 0-12s7-4 11-6z"/>
  <path fill="#25548F" d="m417 794 2-1-2 1z"/>
  <path fill="#155F88" d="M408 852c1 0 0 0 0 0z"/>
  <path fill="#B84C27" d="M215 850v-1l11-7 12-5c1-2 3-3 3-5l1-10c2-2 3-10 1-12l-2-1 1-16 2-8 1 6h1l1-4 2-7-1 58-2 8-7-1v-2l-14 5-10 2z"/>
  <path fill="#373858" d="M259 743v-37a284 284 0 0 1 3-25c1 3 3 2 5 0l5-2h1l1 2v1c-5-1-8 2-8 8v50l-7 3z"/>
  <path fill="#272C54" d="M243 706v21l-1 13v10h-5l-3-3 1-3 1-47c1-4 4-6 8-5l-1 14z"/>
  <path fill="#373858" d="m259 834-1-4a10049 10049 0 0 1 2-73l2 6 4-6h1l-1 4-2 4-1 57 3 4-4 6-3 2z"/>
  <path fill="#BC4922" d="M244 706v-15l-2-3c-7 4-18 1-21 11l-2 1v-7l18-7c5-1 7-3 6-8h-10l18-9v2a147 147 0 0 1 0 19v7c1 6-2 8-7 9zm-2 44v-4l1-6v-4c5 2 5 7 6 11v33l-2 7-1 4h-1l-1-6-2 7v-5l-1-6v-3l1-7v-2l-1-3v-3l1-5v-8m2-10s0-1 0 0z"/>
  <path fill="#2F3459" d="m260 663-4 1h-3a315 315 0 0 0 2-24l12 1c0 8 0 8 7 6h1l-5 3c-4 0-5 2-4 5h-1l-1 2-1 2-3 4z"/>
  <path fill="#44384F" d="m215 850 10-2 14-5v2l7 1c0 5 1 10-3 15l-4-4v-9l-9 4c-2 1-5 1-7 3l-3 2-6 5 1-12z"/>
  <path fill="#8F4236" d="M262 680h-1v-1l-1-3v-5l2 3h1v-6l9-2 2-4 10 1-4 5-10 6-8 5v1z"/>
  <path fill="#5F3947" d="m260 663 4-4 5-1 19-7c3 5-3 4-5 7l-12 4a419 419 0 0 0-12 7l-1-2 1-3 1-1z"/>
  <path fill="#B14825" d="m259 834 3-2 21-10 1 5-1 1a1233 1233 0 0 1-24 6z"/>
  <path fill="#663838" d="m251 669-18 9a229 229 0 0 1-15 4l7-4 6-2h1l13-5c3-1 3-2 1-4l-1-3-1-1a48 48 0 0 0 2-10h2l3 16zm-12 188 4 4h3c2 6 1 7-8 9l1-13z"/>
  <path fill="#44384F" d="m266 757-4 6-2-6-1-4 1-3 1-3 3-1 2 1 1 2-3 5 2 3z"/>
  <path fill="#A8422A" d="M248 653h-2v-10h8v3l-1 5-2 5-1-8h-1l-1 2a79 79 0 0 1 0 3z"/>
  <path fill="#3D2B41" d="m264 746-3 1-2-3a277 277 0 0 0 26-10v4l-21 8z"/>
  <path fill="#B84C27" d="M249 747c-1-4-1-9-6-11l5-2 2 5-1 8z"/>
  <path fill="#703F46" d="m251 656 2-5h1l-2 13-1-8z"/>
  <path fill="#8F4236" d="M246 877h-8l9-5 1 2-2 3z"/>
  <path fill="#663838" d="m273 739-14 5v-1l7-3 5-2 2 1z"/>
  <path fill="#B84C27" d="M249 778z"/>
  <path fill="#663838" d="M251 690v-9 9z"/>
  <path fill="#B84C27" d="M249 766v-7 7z"/>
  <path fill="#8F4236" d="m259 669 1-1v3l-1-2z"/>
  <path fill="#2F3459" d="m259 664-1 3 1-3z"/>
  <path fill="#663838" d="m248 650 1-2-1 2z"/>
  <path fill="#373858" d="m260 676 1 3-1-3zm0 74-1 3 1-3z"/>
  <path fill="#663838" d="M251 671v-2 2zm-3-18v-1 1zm1-5h1-1z"/>
  <path fill="#B84C27" d="M249 752v-1 1z"/>
  <path fill="#2B2A4B" d="M218 682v1l-1 7 2 3v11l-1 8-1 25 2 7v3l-8-4v-17l1-36c1-7-2-11-5-17l-2 44-1 4-1 5-1 8c-2 0-2-4-4-1l2-52 2-3 3-5 1-6 2-9 1 1 3 15c2 3 3 6 7 5v1l-1 1v1z"/>
  <path fill="#21274D" d="M198 733c2-3 2 1 4 1l1-8 1-4 1 2v4l-1 2v26l-1 20v7l-2 20-1 28v24l-2 3-3-2 1-23 2-59v-41z"/>
  <path fill="#373858" d="m238 837-12 5-11 7-1-14 1-28 1-30v-6l5 4-2 14-1 31 1 22 6-4c4 0 4-2 4-4l1-55h3v4l-1 45c0 5 0 8 6 9z"/>
  <path fill="#5F3E49" d="M200 855v-24l1-28 2-20 5 8-1 26v30l-1 8h-6z"/>
  <path fill="#313657" d="M219 747v-4l2-39 5-7-1 11-1 40v7c-1 4-2 2-3 1l-3-1 1-8z"/>
  <path fill="#4F3D54" d="m221 775-5-4 2-4c5-5 11-6 17-7l-1 5 8-7-1 5c-6 3-8 9-8 16h-3l-1-5c1-4 0-9-2-9l-6 3c3 2 6-3 7 2l-3 1-4 4m11-1s0 1 0 0z"/>
  <path fill="#BC4922" d="M204 748v-18l1-2v-11l3 5 1-3 2 7v3l-1 16v4l-6 7v-8z"/>
  <path fill="#5F3947" d="m204 756 5-6-1 28c0-3-2-2-4-2h-1l1-20z"/>
  <path fill="#8F4236" d="m242 758-8 7 1-5c-6 1-12 2-17 7l-1-5 7-3 18-6v5z"/>
  <path fill="#3D2B41" d="m242 752-18 7-7 3c0-2-2-4 2-5v-1h2c1 1 2 3 3-1h1l14-3-2-2h5v2z"/>
  <path fill="#A8422A" d="M204 776c2 0 4-1 4 3v12l-5-8v-6l1-1z"/>
  <path fill="#B14825" d="M210 745v-16l1 14-1 2z"/>
  <path fill="#5F3947" d="M208 791v-5 5z"/>
  <path fill="#313657" d="M219 756v1h-2v-1h2z"/>
  <path fill="#21274D" d="M198 862v-1 1zm0-3v-1 1z"/>
  <path fill="#5F3947" d="M208 784v-1 1z"/>
  <path fill="#1F3165" d="M653 863c2-5 4-11 7-15 1-2 5-2 8-2l3-1 4 13-9 2-13 3z"/>
  <path fill="#B14825" d="M303 841v9l-2 1-2 1a2624 2624 0 0 1-15 3v-4l-1-2 1-3v-3l19-4v2z"/>
  <path fill="#44384F" d="m301 863-17 5c-2-2-2-4 1-7l11-4c6-1 6-1 6 5l-1 1z"/>
  <path fill="#2A3056" d="M284 855h3-3z"/>
  <path fill="#272C54" d="m299 852 2-1-2 1z"/>
  <path fill="#2A3056" d="m283 849 1 2-1-1v-1zm18 14 1-1-1 1z"/>
  <path fill="#272C54" d="m302 851 1-1-1 1z"/>
  <path fill="#4F3D54" d="M433 873c-1-14-1-14 13-18l3-1 5 3-5 4-1 10-15 2z"/>
  <path fill="#44384F" d="M507 876c-6 1-6 1-6-5l-1-12v-3l2 2 2 5c1 5 4 4 7 4 4-2 9-2 13-3l-1 5-14 3-2 4z"/>
  <path fill="#A8422A" d="m433 874 15-3v3l1 2-1 2-16 4 1-8z"/>
  <path fill="#2B2A4B" d="m449 861 5-4 19-5 25-7h2l4 2h-1l-7 2-16 4-31 8z"/>
  <path fill="#B84C27" d="m502 858-2-2-1-2-1-4 5-2c-1 3 3 7-1 10z"/>
  <path fill="#3D2B41" d="m503 848-5 2-2-1 7-2v1z"/>
  <path fill="#2B2A4B" d="M454 864h-1 1z"/>
  <path fill="#4F3D54" d="m449 876-1-2 1 2z"/>
  <path fill="#44384F" d="m499 854 1 2-1-2z"/>
  <path fill="#2B2A4B" d="M452 866c1 0 0 0 0 0z"/>
  <path fill="#2D2C52" d="M256 878z"/>
  <path fill="#663838" d="M528 872v1l-2-1v-2l-3-38 2-4 3 44z"/>
  <path fill="#8F4236" d="M526 871v1l-18 4 1-4 15-3 2 2z"/>
  <path fill="#44384F" d="m303 839-19 4 1-4 10-1-2-9c-1-3-3-5-6-4l-1-4 4 3 12-4v16l1 3z"/>
  <path fill="#A8422A" d="M287 825c3-1 5 1 6 4l2 9-10 1v-4l1-6v-2l1-2z"/>
  <path fill="#703F46" d="m287 825-1 2h-2l-1-5-21 10 4-6 3-2 4-1 3-2 10-2v2l1 4z"/>
  <path fill="#B14825" d="m301 876-5-3 1-1 5-2-1 6z"/>
  <path fill="#703F46" d="M285 829v6-6z"/>
  <path fill="#8F4236" d="m297 872-1 1 1-1z"/>
  <path fill="#313657" d="m283 828 1-1-1 1z"/>
  <path fill="#2F3459" d="M198 733v41l-2 59-1 23-7 1-2-1h-2l-1 1h-9v-4l2-8 1-23-1-6v-6l2-5v-52l1-2h15c-5-3-10-5-16-3v-1l2-36-1-5v-2l2-4v-33h19v14l-2 52z"/>
  <path fill="#272C54" d="M176 857h4l6 2c-3 1-6 1-10-2zm10-1 2 1-2-1zm-3 1 1-1-1 1z"/>
  <path fill="#F59332" d="M529 872a929 929 0 0 1-2-45l6 3 7 5 2 2 7 5 19 12 1 1 1 1 4 5 3 17-9-1-2 1v-9l-2-2-12-8a71 71 0 0 0-10-6l-6-1 3 26-10-6z"/>
  <path fill="#B14825" d="m171 848-3-10c4 2 8 4 4 10h-1z"/>
  <path fill="#8F4236" d="m552 859 12 8-1 1-11-9zm-6-4 6 4-6-4zm-4-2 4 2-4-2z"/>
  <path fill="#2F3459" d="m230 852 9-4v5l-9-1z"/>
  <path fill="#2D2C52" d="m524 828-1 3v-1c1-4-2-3-4-3l-22 6-60 18c-3 1-4 2-4 5h-1v-6l9-7 43-11 3-1h2l16-4v-2l17-4 2 7z"/>
  <path fill="#4F3D54" d="M433 856c0-3 1-4 4-5l60-18 22-6c2 0 5-1 4 3l-18 4c-11 2-21 6-31 9l-17 6-24 7z"/>
  <path fill="#3D2B41" d="m457 849 17-6c10-3 20-7 31-9l18-4v2h-1l-14 4-4 1-2 1h-1l-27 8-2 1h-1l-11 3-3-1z"/>
  <path fill="#703F46" d="m460 850 12-3 1 5-19 5-5-3 11-4z"/>
  <path fill="#2A3056" d="m291 879-2 1v-1h2zm0 0a200 200 0 0 1 2 0h-2z"/>
  <path fill="#1E254F" d="m537 882-3-2 3 2z"/>
  <path fill="#19295E" d="m279 421-22 10-41 18-4 1a593 593 0 0 1-4 0l5-4c3-2 4-4 1-6-3-1-3-3-1-5l-3-4 4-2h2c4 2 7-1 9-4l3-2 2-1 2-1h1l8-2-2 13 2 1 13-11c8 1 11 0 15-10l1-5c3-4 7-7 13-7l-2 3 1 1 5-2h1l-8 10-4-4-3 8 7-3-1 8z"/>
  <path fill="#0A7485" d="M305 253c-5 2-7 4-6 10l-1 25c-2 5-5 10-5 16l-4 3v-1l1-12 1-2v-1l5-19c2-10 1-13-10-13h-1l-2-4a403 403 0 0 1 6-40l3-10 2 6v12c2-4 0-10 8-8a575 575 0 0 1 1-8l1 22 1 24z"/>
  <path fill="#E59357" d="M312 316v-3l3 1-2-10 3 2v2l1 1 45 40c7 6-3 11 2 16l-2 2-6-7-5-4-14-12-1-1-8-7-1-1-2-1c-1-2-1-5-4-3h-2l-1-4-2-6c1-4-1-5-4-5z"/>
  <path fill="#1C5794" d="M258 226v-1l6-8a309 309 0 0 1-9 73l-2 3-5-15h-1v2l-4 15h7v10l2 4v1l-1 1-5 4-5 2-8 6 3-23 6-21c1-4 5-6 4-11l5-1v9h1l3-16 4-28 2-2c2-2-1-3-3-4m-10 79v-7h-2c-3 4-1 9-2 13l2 1 2-7z"/>
  <path fill="#9FE3BA" d="M305 253a601 601 0 0 1 1-43c1 4 0 8 4 11l-4-20-3-3v-29l2-4 3 20a5290 5290 0 0 1 9 75l-2-1-7-6h-3z"/>
  <path fill="#1A286C" d="M283 400c-6 0-10 3-13 7l-1 5c-4 10-7 11-15 10l-13 11-2-1 2-13-8 2 6-4 18-8a337 337 0 0 0 25-14l3-6 6-1v6l-8 6z"/>
  <path fill="#182451" d="m234 377 3-7 2-5 10-12 5-3 12-7c6-2 16 0 20 5l-1 2-8-3-10 1-12 7-11 12-1 2c-8 13-12 25-4 39l2 2 4 3-7 3-5 2c1-5-1-9-1-15-2 1-5 2-4-2l1-2 5-22z"/>
  <path fill="#0C6689" d="m253 293 2-2v2h1l-1-3 1-8 2-1 3 2 4-6 3 6-3 3-4 1v1l4-2 3 4v11h1l3-15 3-2a373 373 0 0 1-9 31l2 2-7 2-1-4-2 2-1-1 2-7c1-3 1-5-2-6l-5 5 1-15m13 3v-7c-3 3-4 9-1 14l1-7z"/>
  <path fill="#BC4922" d="m248 343-2-7h-1l-2 12-2-7h-3l-1-4 58-28v5l-3 1-1 4-1 3-3-7-1 7-2 3-3-7a63 63 0 0 1-2 5l1 1-1 3h-1l-3-6-1 5v2l-1 2h-1l-3-7-2 8-1 1-3-6-3 10-3-7-2 10-4-7-3 11z"/>
  <path fill="#21274D" d="m248 343 3-11 4 7 2-10 3 7 3-10 3 6c0 4 1 5 4 3l19-8v6l-6 3-2 1-2 1-4 2-11 2-10 4v-2l-1 2h-1v-3l-4 5v-5z"/>
  <path fill="#EBA052" d="m308 253 7 7a656 656 0 0 1 0 27l2 18-6-5v-5c3-2 2-5 0-7-3-3-3-6-3-10v-25z"/>
  <path fill="#313657" d="M295 415h-2l-1-3c-1-4 0-7 4-8l12-5 2 6c5-4 6-5 7-14h3l-3 12 1 2-4 5h-6l-3-1-10 6z"/>
  <path fill="#176293" d="m233 323 8-6 5-2 3 8-3 1 4 2-24 11 7-14z"/>
  <path fill="#0A7485" d="m250 326-4-2 3-1-3-8 5-4 1-1v-2l5-5c3 1 3 3 2 6l-2 7 1 1 2-2 1 4-11 7m5-8h-1v1h4v-1h-3z"/>
  <path fill="#E59357" d="M296 373c1-6-2-12 4-18l3 7v12c1 5-2 7-7 8v-9z"/>
  <path fill-opacity="0" d="M206 425c0 6 0 6-7 3l1-19 3-3 2 3 1 16z"/>
  <path fill="#2F3459" d="m254 346 10-4 11-2 15 6c2 1 2 3 3 5l-1 1-6-4c-4-5-14-7-20-5l-12 7-5 3 3-7h2z"/>
  <path fill-opacity="0" d="m197 410-1 16c0 2-2 4-4 5 0-9-3-18 1-26h2l2 5z"/>
  <path fill="#1C5079" d="M219 412c0 4-1 7-7 6l3-5 1-3v-22c5 7 2 15 3 24m-4 4z"/>
  <path fill="#1F758D" d="m268 317-2-2 4-11v7l2 2c5-1 6-5 4-12l5-1-2 10 7-4 3 1-21 10z"/>
  <path fill="#155F88" d="m277 347 8 3 4 5 3 13h-3l-2-10-1-3-8-5-5 10 4 4v1l-9-3-2-1 1-1 5-3 3-6 2-4z"/>
  <path fill="#1C5079" d="m285 389-3 5c1-2 3-4-1-6-3-2-5-2-6 1l-2 1c5-8 8-15 5-24h1l3 5a45 45 0 0 0-3 12c3-1 7 3 9-2h2c0 3-2 6-5 8zm32 2c-1 9-2 10-7 14l-2-7 5-11 4 4z"/>
  <path fill="#EBA052" d="m313 380-4-3v-22l4 5v20z"/>
  <path fill="#44384F" d="M206 455c2 4 1 7-4 7-7 0-8-1-6-9l10 2z"/>
  <path fill="#8F4236" d="M289 326c-6 4-13 6-19 9-3 2-4 1-4-2l2-2 1 2 3-3h2c3 1 4 0 4-3h2l4-2 2-2v3l4-4 2-2c-1 4 3 1 4 2l-7 4z"/>
  <path fill="#44384F" d="m237 337 1 4-1 7c-1 4-4 5-7 5-3-10-2-13 7-16m-2 11-1-6h-2l-1 9 1 1 3-4zm6 11-9 11c-1-13-1-10 10-15l-1 4z"/>
  <path fill="#D37348" d="M312 316c3 0 5 1 4 5l2 6c-1 3-3 3-4 0l-2-11z"/>
  <path fill="#373858" d="M313 380v-20l1-11a861 861 0 0 1-1 31zm-30-44 6-3 4-2v6l-3-1-2 4a388 388 0 0 0-7-3l2-1z"/>
  <path fill="#5A7298" d="m314 381 1-2h1l1 1 1 2 2 9h-3l-4-5 1-5z"/>
  <path fill="#8F4236" d="M234 377a1396 1396 0 0 1-5 24l-1-1v-10l5-14 1 1z"/>
  <path fill="#25548F" d="M216 429h-2l-4 2-2-4 3-4 4-1 2 4v2l-1 1z"/>
  <path fill="#1F3165" d="m280 376 2-5 7-3h3v1l-3 4-9 3z"/>
  <path fill="#B56441" d="M305 364v-6h1v21h-1v-15z"/>
  <path fill="#F5AD64" d="M316 379h-1l-1-31v-2h3l-1 12v21z"/>
  <path fill-opacity="0" d="m211 423-3 3 1-17h1l1 14z"/>
  <path fill="#5A7298" d="M217 428v-2l16-8 5-2v1a181 181 0 0 0-8 5l-2 1-3 2-8 3z"/>
  <path fill="#44384F" d="m311 300 6 5v1h-1l-3-2 2 10-3-2-2-10 1-2z"/>
  <path fill="#D37348" d="m317 346-1-1v-2l3-12h2v2l-3 9-1 4z"/>
  <path fill="#774E4E" d="m310 334-3 2c-1 2-2 5-5 7l6-14 2 5z"/>
  <path fill="#21274D" d="M296 321c-1 0-5 3-4-2v-4h3l1 6z"/>
  <path fill="#2F3459" d="m249 353-10 12 2-6 8-6z"/>
  <path fill="#1F758D" d="m289 373 3-4-2 12h-1v-8z"/>
  <path fill="#1272A6" d="m280 413-7 3 3-8 4 4v1z"/>
  <path fill="#774E4E" d="M316 343v2l-1 1a163 163 0 0 1-5-12l6 9z"/>
  <path fill="#D37348" d="m310 302 2 10v3l-2-13z"/>
  <path fill="#182451" d="M228 390z"/>
  <path fill="#2F3459" d="m239 365-2 5 2-5z"/>
  <path fill="#F5AD64" d="M314 346z"/>
  <path fill="#19295E" d="M208 450z"/>
  <path fill="#5F3E49" d="m217 509-6 1v-6c0-11 0-22-4-33-2-3-2-7 3-9l85-36v29l2 3v1l-1 3v-2h-1v9h-2c-2-5-5-9-10-9s-7 5-9 9l-2 4-4 5-4-2-1-1-1-1-9-2-2-9h-4v-9l-2 1c-1 3-3 6 1 9l-1 4c0 8-1 9-8 10l-2-9-1-9h-1l-2 4-9 2-3 6 3 3 1 1c-5 4-8 8-8 15l8-1v1l-3 2-2 8-1 7v1m46-50 1 8 8-4 1-7-10 3m7-11v6c4-3 4-6 0-11v5m-6 0c-2 6-2 6 2 8v-10h-2v2m15 2v-10c-4 3-4 7-2 10h2m7-9-2-4-1 1 1 10h2v-7m-47 25c4-3 2-6 1-9h-2l1 9m13-14-1 10h1c2-4 2-7 0-10m-36 23a956224 956224 0 0 0-2-7l-1 8 3-1m76-31v-9h-2v8l2 1z"/>
  <path fill="#182450" d="m232 571-1-11 1-44c0-6 3-9 8-8v5l1 3-1 10v32l-2 11-2 1-4 1z"/>
  <path fill="#774E4E" d="m208 593 3-2 1-1 2-1h1l3-1 5-2 4-2 5-2 5-2 3-1 2-1 3-1 2-1 2-1 8-3 21-8 9-5 4-1h1v8h-8l-32 13-22 10-5 2-2 1-3 1-2 1-4 2h-3l-2 3-1-6z"/>
  <path fill="#B14825" d="M190 529v-1h10v32l-12-6v-21l2-4z"/>
  <path fill="#5F3E49" d="m188 555 12 6-1 25-11-1v-30z"/>
  <path fill="#A8422A" d="M295 446v-29l9-3 1 8 1 23-11 1z"/>
  <path fill="#B14825" d="M215 589h-1v-1l5-5 11-5 7-2 1-4v-3l2-11 1-27h1v2l1 37 2 2 1-1h1l12-3v2l-2 2-8 3-2 1-2 1-3 1-2 1-3 1-5 2-5 2-4 2-5 2-3 1z"/>
  <path fill="#44384F" d="m233 493-8 10v-1l-6 6 6-15 4-2c2-2 4-1 4 2z"/>
  <path fill="#B14825" d="M201 516h-9l1-7 9-3-1 10z"/>
  <path fill="#5F3E49" d="m203 506-10 3 1-10 10-2-1 9z"/>
  <path fill="#5F3947" d="M233 493c0-3-2-4-4-2l-4 2 2-5 3-2 10 8h1l2 1-1 5h-3l-6-7z"/>
  <path fill="#BC4922" d="m232 571 4-1 2 2-8 6-10 3c2-5 7-8 12-10z"/>
  <path fill="#A8422A" d="M227 488a1659 1659 0 0 1-10 20l1-7 5-10 4-3z"/>
  <path fill="#C54B17" d="M240 500h2v31h-1v-23l-1-5v-3z"/>
  <path fill="#21274D" d="m304 414-9 3v-2l10-6 3 1-4 3v1z"/>
  <path fill="#703F46" d="m220 581 10-3-11 5 1-2z"/>
  <path fill="#373858" d="M214 588v1l-2 1h-3v-1l5-1z"/>
  <path fill="#21274D" d="M193 494v-3 3z"/>
  <path fill="#5F3947" d="M240 502v1-1z"/>
  <path fill="#0C6E87" d="M303 169v2l-1 6-5 27-3 9v-2l3-25-1-4-1 1-3 22-3 10-4-2 5-38 5-36 3-21 4-2 1 7v36l-1 2 1 8z"/>
  <path fill="#1F2952" d="M316 306h3l11 11a3967 3967 0 0 0 41 37c-5-1-4 2-4 4l2 44v30l-9-4v-1l6-18-1-24-1-4-1-13-1-1 2-2c-5-5 5-10-2-16l-45-40-1-1v-2z"/>
  <path fill="#1272A6" d="M315 274v-14h3l2-1 3-1h2l-3 19-1 4v16h-1l-5-23zm35 37a979508 979508 0 0 0-4 4l-3-17-1-2-1-3 2 1v-8l8-1-1 21v5z"/>
  <path fill="#53AE98" d="m320 258-2 2-3-28-7-47-3-20-2 4-1-8 1-2v-3l4 12 6 44 7 46z"/>
  <path fill="#1C5079" d="m322 193 1 2-3 20v3l-3-2-1-1-2-10v-10l2-2 2 2 2 1 2-3z"/>
  <path fill="#53AE98" d="m322 193-2 3-1-1-4-23-9-54v-4l2 1v2a10235 10235 0 0 0 14 76z"/>
  <path fill="#1272A6" d="M337 273a131 131 0 0 0 4 0v2l-1 3-2 12-6-2v-13l3-2h2z"/>
  <path fill="#53AE98" d="m316 193-1 2-12-71h2l11 69z"/>
  <path fill="#1F758D" d="m332 288 6 2 1 1v17l-2 5-5-25z"/>
  <path fill="#53AE98" d="m328 196 7 32 3 18-2 1-8-51z"/>
  <path fill="#1F758D" d="M337 273h-2c-2 0-2 1-3 2-1-2-2-4 1-5 1-1 2-3 1-5l-4-30h1l6 38z"/>
  <path fill="#53AE98" d="M320 218v-3h1l1 7 4 5 2 18h-1l-4-17h-1l-2 6-1-4 1-12zm17 95 2-4 3 3v-16l1 2a535 535 0 0 1 1 17l-5-4v9c-5-1-1-4-2-7z"/>
  <path fill="#1C5079" d="m326 226-4-4-1-7 1-3 4 2c1 2 2 4 0 7v5z"/>
  <path fill="#19295E" d="M342 296v16l-3-4v-17l2 2 1 3z"/>
  <path fill="#1F758D" d="m321 281 1-4c4 2 7 5 7 10v14l-2-14-2-6h-4z"/>
  <path fill="#1C5079" d="M350 311v-5l3 1 1 7-2 7c-4-2-1-6-2-10z"/>
  <path fill="#1F758D" d="M325 258h-2l-3-21 2-1 3 22z"/>
  <path fill="#1C5079" d="M323 281h2v15c-4-4-1-9-2-15z"/>
  <path fill="#A68672" d="M319 306h-1l-1-1a1157 1157 0 0 1 2 1z"/>
  <path fill="#1F758D" d="m320 218-1 12-2-14 3 2z"/>
  <path fill="#53AE98" d="m340 278 1-3 3 9h-2l-2-6zm2-5h-2l-1-9 1-1 2 10zm-15-81-5-11 1-1 4 12zm6 120v-5l3 8-1 1-2-4zm-12-151v2h-1l1-2zm7 35-1-4 1 4z"/>
  <path fill="#1F758D" d="m316 215 1 1-1-1z"/>
  <path fill="#53AE98" d="M339 320z"/>
  <path fill="#0C6689" d="m486 810 1-11-1-4c-3-5-4-10-10-13l-1-1 3-20 2-2c5 0 8-2 7-7l1-12 17-5 2 4 2 13 6 35c1 4-1 10 4 14l-1 1-1 1-22 6h-2l-7 1z"/>
  <path fill="#1F3165" d="m505 735-17 5 3-10c1-1 5-2 5 4l1-2c1-3 2-6 1-9 0-3 1-4 5-4l3 5v7l-1 4z"/>
  <path fill="#1C5079" d="m505 735 1-4 4 19 9 51c-5-4-3-10-4-14l-6-35-2-13-2-4z"/>
  <path fill="#373858" d="m526 822-2-8 25 18-4 1-19-11z"/>
  <path fill="#1C5079" d="M506 728v-4l2-3 3 10v5l-2-5-3-3z"/>
  <path fill="#53AE98" d="m541 823-1-18h1l2 20-2-2zm2 2h3-3z"/>
  <path fill="#1C5079" d="m517 803 1-1h1l-2 1z"/>
  <path fill="#2B2A4B" d="m380 456-1 2a168 168 0 0 1-20-17v-3l1-1 4-1a2458713 2458713 0 0 1 2-1l5 1 1-2 5 5-1 1c-4 2-1 3 0 4-2 5 1 10 4 12z"/>
  <path fill="#ED933C" d="m369 402-2-44c0-2-1-5 4-4l3 4 1 4-5-3c5 8 3 15 2 23l-2 20h-1z"/>
  <path fill-opacity="0" d="M386 425c4-3 7-2 7 4l1 13-2 3-7-1v-9l1-10z"/>
  <path fill="#B56441" d="M369 402h1l2 31-1 3-6-1 5 11c-2 0-2 0-6-10l-3 1c3-4 0-6-1-9l9 4v-30z"/>
  <path fill-opacity="0" d="m376 440 1-1 1-8 2-8c4 7 4 14 1 22l-5-5zm24 6h-3l-1-2a389 389 0 0 0-1-21h2l2 3 1 20z"/>
  <path fill="#B56441" d="M375 422v10h-1v-29h1v19z"/>
  <path fill="#ADE19A" d="m397 422-2 1-1-10 1-4c2 1 5 2 2 5v8z"/>
  <path fill="#A68672" d="m386 424-1 11v9l-2-28h2l1 8z"/>
  <path fill="#8F4236" d="m396 447 2 3h-2l-9-1-3-2h12z"/>
  <path fill="#ADE19A" d="M395 431z"/>
  <path fill="#B56441" d="m376 440 5 5 1 1-2 1-4-3c-1-1-4-2 0-4z"/>
  <path fill="#1F2952" d="m374 358-3-4 5 4h-2z"/>
  <path fill="#176293" d="m285 213 4 2v2l-1 1-3 19-2 18 2 4v2c-2 5 1 10-6 12l-2 2-2 9-3 2-1-2-2-6 1-8v-3l3-9 5-26 3-5 1-5v-2a26 26 0 0 0 1-5l2-2z"/>
  <path fill="#19295E" d="M283 215v1l-1 4-2-12-4-13 3 1c2 6 6 11 4 19z"/>
  <path fill="#313657" d="m208 593 1 6-1 3-1-1c-7 15-4 31-6 47h-18v-14l-1-4 2-5v-29l-1-4 2-3 23 4z"/>
  <path fill="#5F3947" d="m208 602 1-3 2-3h3l4-2 2-1 3-1 2-1 5-2 4-1 31-12 26-10h1c0 6 1 10-6 11-2 0-8 1-8 6-1-5-4 0-6-1l-1-4c-3 2 0 6-5 6v-5l-3 7v-6l-1 7h-1l-1 1-19 8-3 3-3-3c-4-4-5-4-8 1l-4 8-11 5-4-3v-5z"/>
  <path fill="#4F3D54" d="m208 607 4 3 3 9-1 2-6 12v-26z"/>
  <path fill="#5F3E49" d="m212 674-3-15-1-1-2 9v-2l2-12 4-1 1 10-1 12z"/>
  <path fill="#44384F" d="m180 652-6 5 1-8c0-2 1-3 3-5l2 8z"/>
  <path fill="#19295E" d="m208 633 6-12 1 1-6 19-1 5-2 1v-5l1-2v-1l1-5v-1z"/>
  <path fill="#2B2A4B" d="M206 645v2l2 6-2 12v-20z"/>
  <path fill="#44384F" d="M185 660z"/>
  <path fill="#4F3D54" d="m208 634-1 5 1-5z"/>
  <path fill="#2B2A4B" d="m207 640-1 2 1-2z"/>
  <path fill="#1C5794" d="m274 227-3-2-1 6-2 14 1 3-2 19-6-1 4-32 3-20h2l2 9c1-3 1-5 3-6v4a33 33 0 0 0-1 6z"/>
  <path fill="#0C6689" d="m261 266 6 1 3-19 2-14c1-4 3-5 6-2l-5 26-3 9v3l-1 8-4-7-4-3v-2z"/>
  <path fill="#1C5794" d="m261 268 3 3 1 6-4 6-3-2 3-13z"/>
  <path fill="#19295E" d="M274 227v-1l1-5v-5l4-3c1 8 0 13-5 14zm8-5-1 5 1-5zm-8-10 2-1 1 1-2 1h-1v-1z"/>
  <path fill="#1C5794" d="M265 214c1 0 0 0 0 0z"/>
  <path fill="#663838" d="m177 771 1 10a1208 1208 0 0 1-2 29c-2-10-3-10-10-9 0-5 1-8 6-9l3-4 2-17z"/>
  <path fill="#C54B17" d="M166 801c7-1 8-1 10 9v6c-5-1-7-4-8-8l-2-5v-2z"/>
  <path fill="#663838" d="M178 762v6-6zm0-7v4-4zm0 14v1-1z"/>
  <path fill="#722C44" d="m409 707 1 26v5h-15l-1-10v-23l15 2z"/>
  <path fill="#972A31" d="M395 738h15v-5l1 18 1 13-9 1c-5-1-5 3-5 5l-2 13v-16l-1-29z"/>
  <path fill="#A73830" d="m409 707-15-2-1-21h15l1 23z"/>
  <path fill="#5F3E49" d="m187 585-1 1 1-1z"/>
  <path fill="#C54B17" d="M400 565v1l-1 5-4 2 6 1-1 12h-11v-24l5 3h6z"/>
  <path fill="#BC4922" d="M400 565h-6l-5-3v-19l9 1 1 1 1 20z"/>
  <path fill="#B84C27" d="M389 586h11a156 156 0 0 1 1 16l-12-2v-14z"/>
  <path fill="#774E4E" d="M403 602v3l-2 1-11 2v11l-1-9-1-3-2 2-3-1-2-5 3 1 16 1 2-3h1z"/>
  <path fill="#BC4922" d="m395 573 4-2 2 1v2l-6-1zm4-2 1-5 1 3-2 2z"/>
  <path fill="#C54B17" d="m399 571 1-2 1 3-2-1z"/>
  <path fill="#722C44" d="m396 783 2-13c0-2 0-6 4-5l-1 2v1h11l2 23-17 5-1-11v-2z"/>
  <path fill="#5F3947" d="M412 768h-11v-1l2-2h9v3z"/>
  <path fill="#B84C27" d="m403 621 1 28v12l-2 5-11-3-1-40v-2h13z"/>
  <path fill="#D2480E" d="M403 621h-13v-13l11-2 2 15z"/>
  <path fill="#3D2B41" d="m411 653-2 12c0-2 1-4-3-4v-10c2-2 4-2 5 2z"/>
  <path fill="#D37348" d="M406 651v12l-1 3h-3l2-5v-12l2 2z"/>
  <path fill="#B14825" d="m385 478 11 1 1 32-11 1-1-34z"/>
  <path fill="#C54B17" d="m386 512 10-1 1 9-1 3 2 10-11-1v-12l-1-4v-4z"/>
  <path fill="#E68440" d="m386 475-1 2h-3l-7-6-10-8-1-1-11-9-1-1-4-3-2-2-4-3-4-3-1-1h-1l1-7h-6l1-6 8 5 7 6 4 3 3 2 3 3 6 5 7 5 16 14v5z"/>
  <path fill="#EBA052" d="m359 441 6 7 14 11 7 9-16-12-7-5-6-5-3-3-3-2-4-3-7-6-9-8-17-14 4-5 2-1 4 6 6 8 7 6 4 3 5 4 1 1 4 4 8 5z"/>
  <path fill="#ED933C" d="m408 475-1 9-11-9v-10l12 10z"/>
  <path fill="#3D2B41" d="m370 456 16 12v2l-16-14z"/>
  <path fill="#B56441" d="M380 455c-3-1-6-6-4-11l4 11z"/>
  <path fill="#1E254F" d="M386 456c2-5 3-3 4 1l-4-1zm9 5-3 1 3-1z"/>
  <path fill="#D80F19" d="m282 35-7 8c-10-8-10-8-6-13l3 2 3-5 2 3c1 2 1 5 4 3l1 2z"/>
  <path fill="#D2480E" d="M389 799h-3l-3-3-2-29v-3h1l-1-1v-12l-1-12v-10l-1-2v-3l1-1v-5l2-1 1 8c3 13 0 27 4 40 2 11 1 22 2 34z"/>
  <path fill="#3D2B41" d="M395 792h-4l-3-61v-13l3-4v-9l1 14 1 9v1l1 42 1 4v11l-2-8h-1v7l3 3v4z"/>
  <path fill="#972A31" d="M380 730v7a66 66 0 0 1 0 2l-1 18 2 6v4l-1 2-1 20c0 4-2 8 3 11v1h-5v-28l-1-61h2l2 6v2h-1l1 1v2l-1 1v3l1 2v1z"/>
  <path fill="#ED6622" d="M388 728v3l3 61v4l-2 3c-1-12 0-23-2-34-4-13-1-27-4-40l-1-8h1l2 1 3 10z"/>
  <path fill="#E16834" d="M359 776v-14l1-1 13 9 1 1-1 2-4-3 3 6-3 2c-5 5-3 12-3 18l-1 9-1-1-1-29-2-4h-1l-1 5z"/>
  <path fill="#972A31" d="m359 777 1-6h1l2 4 1 29-3 3-2-30z"/>
  <path fill="#3D2B41" d="m365 805 1-9c0-6-2-13 3-18l1 19c1 2-1 6 4 6l-9 2z"/>
  <path fill="#A73830" d="M374 803c-5 0-3-4-4-6l-1-19 3-2 2 8 2 18v1h-2zm8-3c-5-3-3-7-3-11l1-20 1-2 2 29 3 3-2 1h-2z"/>
  <path fill="#972A31" d="m396 785 1 11-2-4 1-7z"/>
  <path fill="#3D2B41" d="M376 803v-1h1l3-1-4 2zm15-7v-3 3zm-9 4h2l-2 1v-1z"/>
  <path fill="#1C5794" d="m249 256 6-20 1 1-5 28h-1l-1-9z"/>
  <path fill="#1E254F" d="M402 666h4v-5c4 0 3 2 3 5l-3 10-11 2-5 2-2-3 1-14h2l11 3z"/>
  <path fill="#44384F" d="m390 680 5-2 11-2 2 8h-17l-1-4z"/>
  <path fill="#4F3D54" d="M414 681c-1 3-3 3-4 0v-6h2l2 6z"/>
  <path fill="#B56441" d="m526 821 19 12 4 3 7 4c0 2 1 2 2 3l2 1 8 10a752 752 0 0 1-28-19l-7-5-6-3-1 1h-1l-2-7h3z"/>
  <path fill="#373858" d="m556 840-7-4 2-1 5 5zm2 3c-1-1-2-1-2-3l7 3a15217 15217 0 0 1-3 1l-2-1z"/>
  <path fill="#B56441" d="m570 856-1-1 1 1z"/>
  <path fill="#2A3056" d="M387 520v11c3 4 9 5 14 3v3l-1 3-2 4-9-1v18a1514 1514 0 0 0 0 40l-5 3v-4l-3-76v-35l3-6 1-5 1 34v4l1 4z"/>
  <path fill="#D37348" d="M401 537v-12h2l2 14-4-2z"/>
  <path fill="#8F4236" d="m385 478-1 4-2-5h3v1z"/>
  <path fill="#1E254F" d="M178 748c6-2 11 0 16 3h-16l-1-1 1-2z"/>
  <path fill="#21274D" d="m286 819-10 2 2-46v-22l1-1 4-6 2 1v46l1 25v1z"/>
  <path fill="#373858" d="M322 814h-16l-2-3 1-16 20 1 1 2-4 16z"/>
  <path fill="#182450" d="m310 836-1-8c-1-7 1-9 8-9l4-1-3 15c-1 5-4 4-8 3z"/>
  <path fill="#5F3947" d="m305 795-1 16-6-13-4-2-2 3-2-7v-1h1c1 3 3 2 4 0l8-2 2 6z"/>
  <path fill="#BC4922" d="m290 792 2 8-6 18-1-26h5z"/>
  <path fill="#44384F" d="M332 843c9 3 10 3 8 17-4-3-9-3-9-10l1-7z"/>
  <path fill="#313657" d="M332 840c-3-1-5-3-3-7 1-3 0-7-1-12 5 4 9 6 12 10l-9 7 1 2z"/>
  <path fill="#44384F" d="m336 818 1 5-13-7 7-12 5 14z"/>
  <path fill="#703F46" d="m331 804-7 12-2-2 4-16 7 4-2 2z"/>
  <path fill="#373858" d="M300 814c-2 0-5 2-6 1-3-2-2-4 0-6l1-6 2-1 3 12z"/>
  <path fill="#44384F" d="m332 840-1-2 9-7v14l-8-5z"/>
  <path fill="#3D2B41" d="m331 804 2-2 2 3 4 13 1-3 1-1-1 12-4-8-5-14z"/>
  <path fill="#A73830" d="M341 814h-1v-5h1v5z"/>
  <path fill="#44384F" d="M303 846v-3 3z"/>
  <path fill="#182450" d="m310 836-3 1v-1h3z"/>
  <path fill="#44384F" d="M332 843zm-29-2v-1 1z"/>
  <path fill="#972A31" d="m355 734-2 1v-27l-5 6-5-1-1 69-2-95 1-4 4-10a25 25 0 0 0 1-6 445 445 0 0 0 1-9l4 2v2l1 5 1 4 1 10v12l1 41z"/>
  <path fill="#E16834" d="m340 687 2 96v15l-1-1-1-41-4-5-1-10 5 2-2-57 2 1z"/>
  <path fill="#F5AD64" d="m355 734-1-41v-12l1-7 1 3a37 37 0 0 0 1 5v7a10970 10970 0 0 1 2 66l-3 2-1-23z"/>
  <path fill="#EBA052" d="m356 757 3-2v7c-2 3-4 6 0 8v2l-2 1-1-16zm0 19z"/>
  <path fill="#A73830" d="M342 798zm0-9v-5 5z"/>
  <path fill="#EBA052" d="M357 783v2-2z"/>
  <path fill="#A73830" d="M342 809v-1 1z"/>
  <path fill="#F7AF5C" d="m335 741 1 10 1 7 2 47h-3l-3-3-7-4-1-2-1-47v-3l-1-34v-12c1-7 2-13 0-19-1-8 4-13 6-20h3v2l1 20 1 53 1 5z"/>
  <path fill="#A73830" d="m339 805-2-47-1-7 4 5 1 41v8h-2z"/>
  <path fill="#1F3165" d="m495 809 22-6-1 3c1 4-1 5-4 6h-8l-8 4-1-7z"/>
  <path fill="#8F4236" d="M489 831h-2l-3 1-43 11 8-4a1072 1072 0 0 1 40-8z"/>
  <path fill="#1F3165" d="m486 810 7-1c1 6 1 7-6 9l-1-8z"/>
  <path fill="#5F3947" d="m489 831-3-1a474 474 0 0 1 3 1z"/>
  <path fill="#21274D" d="M233 779c0-7 2-13 8-16v3l1 3-1 2v61c0 2-2 3-3 5-6-1-6-4-6-9l1-45v-4z"/>
  <path fill="#703F46" d="m242 822-1-12h2c2 2 1 10-1 12z"/>
  <path fill="#1E254F" d="m271 738-5 2v-50c0-6 3-9 8-8v51l-3 5z"/>
  <path fill="#44384F" d="M274 732v-39a1178 1178 0 0 0 0-12h3l3-5-1 7-1 45 1 7-5-3z"/>
  <path fill="#A8422A" d="m280 676-3 5h-3l-1-2-3-5 10-6 4-5 6 2-5 1v7c4 7 2 14 1 21v-19a1944 1944 0 0 1-6 1z"/>
  <path fill="#C54B17" d="m270 674 3 5h-11l8-5z"/>
  <path fill="#A8422A" d="M262 679h10l-5 2c-2 2-4 3-5 0v-2z"/>
  <path fill="#4F3D54" d="m236 697-1 47-1 3h-2l1-48 3-2z"/>
  <path fill="#8F4236" d="m236 697-3 2c-2-2-3-6-6-3l-1 1-5 7h-2v-4l2-1c3-10 14-7 21-11l2 3c-4 0-7 2-8 6zm-4 50h2l3 3 2 2-13 3c4-1 5-4 6-8z"/>
  <path fill="#2D2C52" d="M242 746v2-2z"/>
  <path fill="#1E254F" d="m273 823-4 1-3-4 1-47-1-12 1-4 2-3h2l2 6v63z"/>
  <path fill="#272C54" d="m266 761 1 12-1 47 3 4-3 2-3-4 1-57 2-4z"/>
  <path fill="#44384F" d="m269 754-2 3h-1l3-3z"/>
  <path fill="#B14825" d="m217 690 1-7 15-5h5c-1 3 1 8-5 7l-2-4h-1v6h-4l-1-4-2 7h-2v-4l-4 4z"/>
  <path fill="#8F4236" d="m217 690 4-4v4h2l2-7 1 4h4v-6h1l2 4c6 1 4-4 6-7h4c1 5-1 7-6 8l-18 7-2-3z"/>
  <path fill="#4F3D54" d="M241 778v-7 7z"/>
  <path fill="#B84C27" d="m242 787-1-5 1 5z"/>
  <path fill="#4F3D54" d="m242 769-1-3 1 3z"/>
  <path fill="#B84C27" d="M244 740c0-1 0 0 0 0z"/>
  <path fill="#D2480E" d="M286 694c1-7 3-14-1-21v-7l5-1-6-2c2-2 3-4 0-5 1-3 7-2 4-7l-19 7-5 1v-2l2-2 20-8 3-5v-2l1-6v-14l13-4 1 1v9l16 3v15h-16l-1 3v45l-16 7-1-5z"/>
  <path fill="#293458" d="m267 641-12-1v-6c0-11 2-21 7-30 2-5 4-12 11-14l7 4 1 1 4 8h-3c-4-4-5-4-7 2v4l3 6 2-1 1 2-3 8-5-14c-4 11-7 21-6 31z"/>
  <path fill="#182451" d="m278 615-3-6v-4c2-6 3-6 7-2l-1 1-1 8a4800 4800 0 0 1 7 0l1 18 1 10v2a52 52 0 0 1-11 3l-3 2h-1c-7 2-7 2-7-6-1-10 2-20 6-31l5 14 3-8-1-2-2 1m-1 26 1 1 1-1h-2m1-5s0 1 0 0z"/>
  <path fill="#4F3D54" d="M273 590c-7 2-9 9-11 14a64 64 0 0 0-7 31v1a813 813 0 0 0 0 2v2l-1 3h-3c-5-8 0-16 0-24l-2 3-1-4 12-23c2-1 5-2 6-4 3-2 5-6 10-3l-3 2z"/>
  <path fill="#44384F" d="m282 644 6-2-2 5-20 8c-1-3 0-5 4-5l5-3 3-2 4-1z"/>
  <path fill="#4F3D54" d="M254 651h-1l1-5v5z"/>
  <path fill="#44384F" d="m265 655-1 2 1-2z"/>
  <path fill="#C54B17" d="M260 671v-3l12-6h1l-1 4-9 2v6h-1l-2-3z"/>
  <path fill="#A8422A" d="M274 662h-2l11-4c4 1 3 3 1 5l-10-1z"/>
  <path fill="#182451" d="M246 643a539 539 0 0 0-1 16l-9 2v-7h-2l1 7-10 5c0-13 1-25 5-38 5 4 4 10 5 15l4-16h-1l-3 4c-4-6-3-10 3-16l1 8c5 1 5 6 6 10l1 10m-11 4v3h1l-1-3z"/>
  <path fill="#44384F" d="m225 666 10-5h1l9-2-1 4-21 9c-2-4 0-5 2-6z"/>
  <path fill="#5F3947" d="M219 680v-1l4-7v1l-1 3 19-8 4-4 1 3-9 6-5 3h-1l-6 2-6 2z"/>
  <path fill="#C54B17" d="m245 664-4 4-19 8 1-3a734 734 0 0 1 22-9z"/>
  <path fill="#8F4236" d="m232 676 5-3 9-6c2 2 2 3-1 4l-13 5zm-13 4 6-2a76 76 0 0 1-7 4v-1l1-1zm6-2 6-2-6 2z"/>
  <path fill="#373858" d="M273 823v-63c3-6 0-11-6-11l-1-2 16-6-8 7 4 5v22l-2 46-3 2z"/>
  <path fill="#703F46" d="M267 749c6 0 9 5 6 11l-2-6-1-2-1 2-3 3-2-3 3-5z"/>
  <path fill="#8F4236" d="m282 741-16 6-2-1 21-8-3 3z"/>
  <path fill="#2A3056" d="m223 672-4 7c-4 1-5-2-7-5l1-12-1-10c1-18 6-33 17-45 9-1 13 6 15 13l3 13v10h-1l-1-10c-1-4-1-9-6-10l-1-8c-6 6-7 10-3 16l3-4h1l-4 16c-1-5 0-11-5-15-4 13-5 25-5 38-2 1-4 2-2 6m7-46s1 0 0 0z"/>
  <path fill="#774E4E" d="M247 643v-10a143 143 0 0 0 2-11l2-3c0 8-5 16 0 24h-4z"/>
  <path fill="#663838" d="m282 741 3-3v-4l1-19 18-8v5l1 10c0 4 1 8-3 10-7 3-12 7-12 15l-3 7a601 601 0 0 1 17-6l-5 5-10 3c-4 2-4 4-1 6h-1l-1 2h-1v-17l-2-1a104 104 0 0 1-5 7l-4-5 8-7z"/>
  <path fill="#1F2952" d="m286 715-1 19-4 1h-2l-1-7 1-45 1-7 1-1h5v19l1 5v7l-1 9z"/>
  <path fill="#8F4236" d="M279 735h2l-8 4-2-1 3-5 5 2z"/>
  <path fill="#B14825" d="m211 726-2-7-1 3-3-5 2-44c3 6 6 10 5 17l-1 36z"/>
  <path fill="#774E4E" d="M219 704h2l-2 39-2-6 1-25 1-8z"/>
  <path fill="#663838" d="M218 681v1-1z"/>
  <path fill="#5F3947" d="M204 748v5-5z"/>
  <path fill="#2B2A4B" d="M205 724v4-4z"/>
  <path fill="#5F3E49" d="m204 776-1 1v-1h1z"/>
  <path fill="#2B2A4B" d="M204 730v1-1zm-2 4z"/>
  <path fill="#1E254F" d="m228 774 2 5-1 55c0 2 0 4-4 4-1-2-3-3-3-5l1-46 2-16 3-1v4z"/>
  <path fill="#2A3056" d="m225 771-2 16-1 46c0 2 2 3 3 5l-6 4-1-22 1-31 2-14 4-4z"/>
  <path fill="#1E254F" d="M232 747c-1 4-2 7-7 8h-1v-7l1-40 1-11 1-1c3-3 4 1 6 3l-1 48z"/>
  <path fill="#8F4236" d="m229 774-1-4c-1-5-4 0-7-2l6-3c2 0 3 5 2 9zm3 0c0 1 0 0 0 0zm271 74v-1h1l19-4 1 17h-6l-14 3-2-5c4-3 0-7 1-10z"/>
  <path fill="#5F3E49" d="m504 863 14-3h6v4c-4 1-9 1-13 3-3 0-6 1-7-4z"/>
  <path fill="#B56441" d="M524 864v-3l-1-18v-2l-1-1v-8h1l3 38-2-1v-5z"/>
  <path fill="#8F4236" d="m473 852-1-5 2-1 26-8-2 7-25 7z"/>
  <path fill="#A8422A" d="m498 845 3-7h1l2-1 4-1 14-4v8l-22 5h-2z"/>
  <path fill="#3D2B41" d="m500 845 22-5 1 1v1l-19 5-4-2z"/>
  <path fill="#774E4E" d="m533 830 7 5-7-5zm-6-3 6 3-6-3zm13 8 2 2-2-2z"/>
  <path fill="#5F3947" d="m484 832 3-1-3 1z"/>
  <path fill="#8F4236" d="m508 836-4 1 4-1zm-4 1-2 1 2-1z"/>
  <path fill="#703F46" d="m474 846-2 1 2-1z"/>
  <path fill="#1A286C" d="m217 428 8-3c-2 3-5 6-9 4l1-1zm8-3 3-2-3 2zm-15 6 4-2-4 2zm20-9 2-1-2 1zm-2 1 2-1-2 1z"/>
  <path fill="#1F758D" d="m294 213 3-9 5-27h1v25l-1 13c-8-2-6 4-8 8v-10z"/>
  <path fill="#1A2754" d="M285 261v-2h1l4 4 2 15-1 13v1l-3-16h-1v3l-3 2-2-3c8-5 8-5 5-12l-2-5z"/>
  <path fill="#176293" d="m291 291 1-13-2-15-4-4c11 0 12 3 10 13l-5 19z"/>
  <path fill="#1F758D" d="m292 205 3-22 1-1 1 4-3 25-2-6z"/>
  <path fill="#0C6689" d="M287 279v-3h1a328 328 0 0 0 2 18l-4 2-2-2 3-4v-11z"/>
  <path fill="#53AE98" d="M303 202v-3l3 2 4 20c-4-3-3-7-4-11l-2-4-1-4z"/>
  <path fill="#0DBFB7" d="m286 296 4-2-1 12h-3v-10z"/>
  <path fill="#0C6E87" d="m288 218 1-1-1 1z"/>
  <path fill="#B56441" d="m337 344 14 12 1 5-2 1-4-5-1-4-8-9z"/>
  <path fill="#D37348" d="m352 361-1-5 5 4 6 7 1 1-2 1-7-6h-1l-1-2z"/>
  <path fill="#B56441" d="m328 336 8 7a146 146 0 0 1-8-7zm28 24-5-4 5 4zm-35-28v-1c3-2 3 1 4 3l-4-2zm4 2 2 1-2-1z"/>
  <path fill="#44384F" d="m316 308 1 1-1-1z"/>
  <path fill="#B56441" d="m327 335 1 1-1-1zm9 8 1 1-1-1z"/>
  <path fill="#1A286C" d="M252 308v1l-2-4v-10h-7c8-3 8-3 5-10l-1-5v-2h1l5 15-1 15z"/>
  <path fill="#0C6689" d="m247 280 1 5c3 7 3 7-5 10l4-15z"/>
  <path fill="#19295E" d="m248 306-2 6-2-1c1-4-1-9 2-13h2v8z"/>
  <path fill="#0C6689" d="m252 310-1 1 1-1z"/>
  <path fill="#53AE98" d="M303 177h-1l1-6v6z"/>
  <path fill="#0DBFB7" d="m273 390 2-1c1-3 3-3 6-1 4 2 2 4 1 7l-13 8-4-2-1-4 4-1h-4v-3l3-3 1 6 5-6z"/>
  <path fill="#284B86" d="M264 393v4l1 4 4 2a172 172 0 0 1-13 6l3-3 1-5h-4l1-2c5 0 6-3 4-10l3-3v7z"/>
  <path fill="#25548F" d="m239 417-1-1 7-3-4-3 2-1 4 2 1-1 6-3 2 2-17 8z"/>
  <path fill="#1C5079" d="m243 409-2 1-2-2c-8-14-4-26 4-39v1l-1 6h8v2l-3 7 1-6c-9-1-12 2-10 12l9-6v6l-7 3c-3 1-3 1-1 6l8-9 5 6v1l-9 11zm24-49-1 2-5 1c-1-4 2-9-5-8l11-7v12zm-22 7 10-12h1l-4 5 6 6-3 4-1 2h-2c2-4-1-5-3-6l-4 1z"/>
  <path fill="#1F758D" d="M267 350v-2l10-1-2 3h-8z"/>
  <path fill="#25548F" d="m239 408 2 2-2-2z"/>
  <path fill="#1C5079" d="m243 369 1-2h1l-2 2z"/>
  <path fill="#0A7485" d="M286 296v10l-7 4 2-10-5 1v-2h-1l-5 12v-7l5-20 2-9 2-2c7-2 4-7 6-12l2 5c3 7 3 7-5 12l2 3v13l2 2z"/>
  <path fill="#1F3165" d="m271 284 1 2-3 15h-1v-11l-3-4 3-3 3 1z"/>
  <path fill="#284B86" d="m271 284-3-1-3-6v-6l4 7 2 6z"/>
  <path fill="#1A2754" d="m266 296-1 7c-3-5-2-11 1-14v7z"/>
  <path fill="#1F3165" d="m265 286-4 2v-1a49 49 0 0 1 4-1z"/>
  <path fill="#1C5794" d="m255 290 1 3h-1a60 60 0 0 1 0-3z"/>
  <path fill="#21274D" d="m272 330-3 3-1-2 1-8 3 7z"/>
  <path fill="#182450" d="m284 325-4 2v-4l1-5 3 7z"/>
  <path fill="#21274D" d="M278 327c0 3-1 4-4 3v-4l1-5 3 6z"/>
  <path fill="#182450" d="m290 322-4 4v-4l1-7 3 7z"/>
  <path fill="#8F4236" d="M274 326v2-2zm6-3v1l-1-1h1z"/>
  <path fill="#182450" d="m253 346 1-2v2h-1zm30-10-2 1 2-1z"/>
  <path fill="#F5AD64" d="m320 404-2 1-1-2 3-12-1-9 2-5v-14h2l-1 6 1 4v7l1 6-4 18z"/>
  <path fill="#3D2B41" d="M314 410a251 251 0 0 1 15 14l-4-2-11-9-2-1-1-2h3zm-10 3 4-3h1l2 2-7 1z"/>
  <path fill="#21274D" d="m311 412-2-2h2l1 2h-1z"/>
  <path fill="#0C6689" d="M255 318h3v1h-4v-1h1z"/>
  <path fill="#21274D" d="M253 346h1-1z"/>
  <path fill="#182450" d="M215 416zm0 0z"/>
  <path fill="#1C5794" d="M270 311a435 435 0 0 1 6-10c2 7 1 11-4 12l-2-2z"/>
  <path fill="#21C6C1" d="m255 370 3-4 3-3 5-1h2l2 7-7 2-2 7-9 19-5-6v-6l3-7v1l4-7 1-2z"/>
  <path fill="#0DBFB7" d="m277 363-4-3 5-10 8 5-9 8zm12 5-7 3-3-5 8-8 2 10zm-22-17h8l-3 6-5 3v-9zm3 18-2-7 9 3v5h-3l-4-1z"/>
  <path fill="#1F3165" d="M277 366v-2l9-9 1 3-8 8h-2z"/>
  <path fill="#21C6C1" d="M277 366h1c3 9 0 16-5 24l-5 6-1-6-3 3v-8l6-10 4-5h3v-4z"/>
  <path fill="#0DBFB7" d="m289 373-1 8c-2 5-6 1-9 2l1-6 9-4z"/>
  <path fill="#182450" d="m235 348-3 4-1-1 1-9h2l1 6z"/>
  <path fill="#774E4E" d="M321 363v14l-2 5-2-2 1-21-2-1a314 314 0 0 0 2-16l3-8 2 11-2 6-1-1a3781 3781 0 0 1 1 1v12z"/>
  <path fill="#E59357" d="m316 358 2 1a278 278 0 0 1-2 20v-21z"/>
  <path fill="#E68440" d="m321 351 2-6-2-12v-1l4 2 2 1 1 1 8 7 1 1 8 9 1 4c-5-4-9-8-15-7-6 2-8 5-9 10h-1a158 158 0 0 1 0-9z"/>
  <path fill="#C54B17" d="m247 464 4-1 2 9-11 18a147 147 0 0 0-3-1l-2-2-1-1c-6-5-8-4-13 4l-8 1c0-7 3-11 8-15a249 249 0 0 1 12-6l2 8c7-1 8-2 8-10l1-4h1z"/>
  <path fill="#21274D" d="M297 459v-4c2-4 5-3 7-1v15l2-1c10-1 10-1 10-11v-2c4-2 4 0 4 2l1 5h-1l-3 11h-7l-7 1v5l-7 4-1-2-3-9v-1c-3-4-4-9-10-7l-2 1-2 2-3 2h-1c2-4 4-9 9-9s8 4 10 9l2 1v-10h1v2l2 1-1-4m3 10 1 3h1l-2-5v-3l-2 2h-2l1 4-1 3 1 1 3-5z"/>
  <path fill="#D2480E" d="M304 454c-2-2-5-3-7 1h-2v-8l11-2h8v3h-10v6z"/>
  <path fill="#44384F" d="m263 459 10-3-1 7-8 4-1-8z"/>
  <path fill="#4F3D54" d="M234 470a3849 3849 0 0 1-12 5v-9l9-2 3 6z"/>
  <path fill="#2B2A4B" d="m239 489 3 1 11-18 9 2h-1c-4-2-7-1-8 3l-10 18-2-1-2-5z"/>
  <path fill="#21274D" d="M270 447v-4c4 5 4 8 0 11v-7zm-6 1v-2h2v10c-4-2-4-2-2-8z"/>
  <path fill="#2B2A4B" d="m264 476 4 2 4-5-3 11-2-1-1-1-2-6zm15-26h-2c-2-3-2-7 2-10v10zm-56 40c5-8 7-9 13-4h-6l-3 2-4 3v-1zm63-49v7h-2l-1-10 1-1 2 4zm-47 25-1-9h2c1 3 3 6-1 9zm-5 4-3-6 2-4h1l1 9-1 1z"/>
  <path fill="#21274D" d="M252 452c2 3 2 6 0 10h-1l1-10z"/>
  <path fill="#2D2C52" d="m247 463-1 1c-4-3-2-6-1-9l2-1v9z"/>
  <path fill="#2A3056" d="M216 476h-3l1-8h2v8z"/>
  <path fill="#272C54" d="M222 466v9l-3-3 3-6z"/>
  <path fill="#21274D" d="m292 444-2-1v-8h2v9z"/>
  <path fill="#2B2A4B" d="m223 491-5 10 2-8 3-2z"/>
  <path fill="#3D2B41" d="m297 459 1 4-2-1 1-3z"/>
  <path fill="#2B2A4B" d="m218 501-1 6 1-6zm56-32h1l-3 4 2-4z"/>
  <path fill="#A8422A" d="M295 455h2v3l-2-3z"/>
  <path fill="#3D2B41" d="M295 469v1l-2-1h2z"/>
  <path fill="#2B2A4B" d="m263 475 1 1h-1v-1zm-1-1 1 1h-2l1-1z"/>
  <path fill="#B14825" d="m240 526 1 3-1-3z"/>
  <path fill="#703F46" d="m238 572-2-2 2-1v3z"/>
  <path fill="#293458" d="m240 513 1 3-1-3z"/>
  <path fill="#D2480E" d="M279 583c-1-5 5-6 7-6 7-1 6-5 6-11v-20l2-4 11-3v39l-2 1c-6-2-10 1-10 7l-1 8-4 2-9-13z"/>
  <path fill="#5F3E49" d="M292 554v4h-1l-4 1-4 1-24 10v-3l7-5v-5l1-41-1-18v-6l-2-11 2 1 1 1 2 1h1l-1 13 1 62c1 5 3 2 4 2l18-7z"/>
  <path fill="#373858" d="m291 566-26 10-31 12-4 1a553 553 0 0 1 54-23h7zm-32 4 24-10 4-1-9 5a413 413 0 0 1-19 6zm-10 5 8-3-8 3zm-19 14-5 2 5-2zm-12-1 5-2-5 2zm69-29 4-1-4 1zm-69 35-4 2 4-2zm9-10 5-2-5 2zm5-2 5-2-5 2zm-9 4 4-2-4 2zm0 6-3 1 3-1zm-8-3 3-1-3 1zm-1 7h-3 3zm23-16 3-1-3 1zm5-2 3-1-3 1zm-2 1 2-1-2 1zm5-2 2-1-2 1zm2-1 2-1-2 1z"/>
  <path fill="#B84C27" d="M314 445h-8l-1-23-1-8v-1l7-1h1l2 1v32z"/>
  <path fill="#293458" d="M266 492v5l-5 1-3 9v53l-10 8-2 3-1 1-2-2a1075 1075 0 0 1-1-46v-3l1-16c3 1 3 0 4-2l8-19c2-4 5-4 7 1l4 7z"/>
  <path fill="#5F3947" d="m247 571 1-2 18-6-7 4-12 4z"/>
  <path fill="#703F46" d="m230 578 8-6-1 4-7 2z"/>
  <path fill="#5F3947" d="M242 524v9-9zm3 48 1-1-1 1z"/>
  <path fill="#B14825" d="m243 495 10-18c-5 7-9 14-9 23h-2l1-5z"/>
  <path fill="#A8422A" d="M230 486h6l1 1 2 2 2 5h-1l-10-8zm-3 2 3-2-3 2z"/>
  <path fill="#44384F" d="M244 500c0-9 4-16 9-23l6-1 2 2 2 2 1 1 2 11-4-7c-2-5-5-5-7-1l-8 19c-1 2-1 3-4 2l-1-3v-1l2-1z"/>
  <path fill="#5F3947" d="m242 502 1 3a328 328 0 0 1-1-3zm2-2-2 1v-1h2z"/>
  <path fill="#1F758D" d="m303 159-1 1 1-1z"/>
  <path fill="#E68440" d="m365 385 1 24-6 18-2-2-1-1v-2c8-7 8-16 6-25l-9-30c5 1 6 3 6 8l2 10 2-4 1 4z"/>
  <path fill="#703F46" d="m364 381-2 4-2-10c0-5-1-7-6-8v-4l7 6 2-1 1 13z"/>
  <path fill="#2A3056" d="M360 428c1 3 4 5 0 9h-1l-2-4-1-5 3-1h1v1z"/>
  <path fill="#703F46" d="m365 385-1-4 1 4z"/>
  <path fill="#9FE3BA" d="M343 294zm-11-19 2-2-2 2z"/>
  <path fill="#21274D" d="m359 441-8-6v-4l3-4 3 6 2 5v3z"/>
  <path fill="#B56441" d="m359 438-2-5 2 4v1z"/>
  <path fill="#25548F" d="m282 220 1-4-1 4z"/>
  <path fill="#1F2952" d="m278 583 10 13 4-2 1-8c0-6 4-9 11-7l1 11 2 4h8l2-2 1-8 2-3c1-1 3 0 4 1v3a202 202 0 0 0-1 10l-4 10h-10l-2-1-6-9-4-10-5 21c0 3-2 5-5 6l-5-2c-1-2 5-5-1-6l1-1h3l1 2h2l-1-1v-2l-8-12-1-1-2-1c-5-3-7 1-10 3-1 2-4 3-6 4l5-8 1-3c5 0 2-4 5-6l1 4c2 1 5-4 6 1z"/>
  <path fill="#D2480E" d="m265 587-5 8-12 22-10-18 3-3 19-8 1-1h4z"/>
  <path fill="#272C54" d="m238 599 10 19 1 4v3l-2-3-5-13c-5-8-11-8-17-1l-10 14-1-1 1-2 8-14 4-8c3-5 4-5 8-1l3 3z"/>
  <path fill="#C54B17" d="m223 605-8 13-3-8 11-5z"/>
  <path fill="#8F4236" d="M265 587h-3l1-7v6l3-7v5l-1 3zm-4 0-1 1 1-1zm2-7z"/>
  <path fill="#4F3D54" d="m215 622 10-14c6-7 12-7 17 1l5 13 2 3-2 8-3-13c-2-7-6-14-15-13a69 69 0 0 0-17 45l-4 1-2-6 2-1 1-5 6-19z"/>
  <path fill="#2B2A4B" d="m209 641-1 5 1-5z"/>
  <path fill="#26508B" d="m275 221-1 5 1-5z"/>
  <path fill="#B84C27" d="M391 684h2v21a473 473 0 0 1 0 23 250 250 0 0 0-2-23v-21z"/>
  <path fill="#8F4236" d="m393 729 1-1 1 10 1 29-1 7-1-3-1-42z"/>
  <path fill="#B56441" d="m395 775 1-8v18l-1 7v-17z"/>
  <path fill="#BC4922" d="M395 573z"/>
  <path fill="#182450" d="m384 604 5-3 12 1-1 3-16-1z"/>
  <path fill="#F5AD64" d="m381 603 2 5-3 1-2-1v-4l-18-13-29-20h-3l-1-10 11 6 1 1 3 3v-18a19957 19957 0 0 0 1-34l1 5 1 45c0 5 0 8 5 11l5 3c2 2 3 4 6 5l20 15z"/>
  <path fill="#2D2C52" d="m380 609 3-1 3 1 2-2 1 3 1 9v4l1 40h-2l-1 14 2 3 1 4v4a162 162 0 0 1 0 11v15l-3 4-1-6v-14l-2-17v-1l1-3-1-3 1-3 1-17-1-14v-5l-1-5v-10l-4-8-1-3z"/>
  <path fill="#E68440" d="m381 603-20-15c-3-1-4-3-6-5l-5-3c-5-3-5-6-4-11l10 8 6 8 4 4 11 6v1l2 1 3 2 2 1v4l-3-1z"/>
  <path fill="#774E4E" d="M390 623v-1 1z"/>
  <path fill="#3D2B41" d="M406 663v3-3z"/>
  <path fill="#B14825" d="m387 520-1-4 1 4z"/>
  <path fill="#ED933C" d="M329 424h2l1 3a97 97 0 0 1-2 8h1v-2h6l-1 7h1l1 1 4 3 4 3 2 2 4 3 1 1 11 9 1 1 10 8 7 6 1 6-2 6h-2v-8l-5 3v-7h-1l-3 7-1-2v-9h-1l-3 7v-3l-1-9-4 6v-1l-1-8h-1l-3 7h-2l1-11-5 3v-7l-1-1-3 8-3 1c2-5 3-9 0-14l-3 9h-2c1-4 3-8 0-13l-3 9-2-1a1566 1566 0 0 1 0-11l-4 3-1-8h-1l-1 3-1-14 2-2 2 1v-1h-2v-1l3-1m-2 7 1 1-1-1z"/>
  <path fill="#3D2B41" d="m332 427-1-3 9 8-8-5z"/>
  <path fill="#8F4236" d="M364 462zm11 9z"/>
  <path fill="#3D2B41" d="m340 432 7 6-7-6zm17 14 6 5-6-5zm6 5 7 5-7-5z"/>
  <path fill="#8F4236" d="m382 477-7-6 7 6z"/>
  <path fill="#3D2B41" d="m354 443 3 3-3-3zm-7-5 4 3-4-3z"/>
  <path fill="#8F4236" d="m342 444-4-3 4 3zm4 3-4-3 4 3zm6 5-4-3 4 3z"/>
  <path fill="#3D2B41" d="m351 441 3 2-3-2z"/>
  <path fill="#8F4236" d="m348 449-2-2 2 2zm17 14-1-1 1 1zm-12-10-1-1 1 1zm-15-12-1-1 1 1zm-1-1h-1 1z"/>
  <path fill="#293458" d="M357 422v3l-2-1-3-3v4l-1 3-1 1h-1l-1-3-1-6h2-2c-2 2-2 2 0 7v4h-1l-5-4a38 38 0 0 1 1-6l1-2 1-2-5-7 5 3 6 5 5 2 2 2z"/>
  <path fill="#ED933C" d="m320 404 4-18 3 2 1 1a93 93 0 0 0 0 12v1l-1 6-3 2-4-6z"/>
  <path fill="#21274D" d="m337 424-7-6 3-7 6 12-2 1z"/>
  <path fill="#D37348" d="m333 411-3 7-6-8 3-2 2 5 4-6h1l-1 4z"/>
  <path fill="#3D2B41" d="m337 424 2-1 3-1-1 5-4-3z"/>
  <path fill="#2D2C52" d="M346 431h1l2-2h2v3h-2a171 171 0 0 0-3-1z"/>
  <path fill="#3D2B41" d="M347 432h2l2 1v2l-4-3z"/>
  <path fill="#A73830" d="M383 717h-1l-2 1-2-6v-20l2-4c5 10 2 20 3 29zm-2 46-2-6 1-18 1 12v12zm-1-34-1-2 1 2zm0-9v-1 1zm1 47v-1 1zm0-3v-1l1 1h-1zm-1-32v-1 1zm0-2v-1 1zm-1-6 1-1-1 1zm1-3-1-1h1v1zm0 17v-1 1zm0-2v-1 1z"/>
  <path fill="#B56441" d="m385 681 2 17v14l1 6v10l-3-10v-29l-1-5 1-3z"/>
  <path fill="#1F2952" d="M395 786v2l-3-3v-7h1l2 8z"/>
  <path fill="#8F4236" d="M392 719z"/>
  <path fill="#B56441" d="M388 731v-1 1z"/>
  <path fill="#ED6622" d="m377 801-1 1-2-18-2-8-3-6 4 3 1-2-1-16-1-41c0-4-2-7-6-8l-2-3 7 1 1-11h2v1l1 18 2 61v28z"/>
  <path fill="#722C44" d="m376 712-2-18 4-2a3807 3807 0 0 0-2 20z"/>
  <path fill="#8F4236" d="m384 684 1 5v29l-2-1c-1-9 2-19-3-29l4-4z"/>
  <path fill="#A73830" d="M366 706c4 1 6 4 6 8l1 41 1 16-1-2-3-7-1-1v-46c0-4 0-7-3-9z"/>
  <path fill="#5F3947" d="m370 762 3 7-13-8-1-4 2-1 3 2 5 3 1 1z"/>
  <path fill="#F5AD64" d="M359 770c-4-2-2-5 0-8v8z"/>
  <path fill="#2B2A4B" d="m558 843 2 1-2-1z"/>
  <path fill="#972A31" d="m384 600-2-1-1-12-6 3-11-8-1-22v-4l-1-28 1-19-1-1 3-7 4 4 7 27 2-8h3l3 76z"/>
  <path fill="#774E4E" d="M381 524h-3l-3-15 2-1v-16l2-3h2a534 534 0 0 1 0 35z"/>
  <path fill="#B14825" d="m285 765 1-1 1-2h1l6-3 3 5v-8l2-1c5 3 4 8 5 12l-15 7 1 1h6l1 2-12 3v-15z"/>
  <path fill="#663838" d="m285 780 12-3-1-2h-6l-1-1 15-6-1 10h-2l-2 1-4 12c-1 2-3 3-4 0h-1v1h-5v-12zm0-12v5-5z"/>
  <path fill="#373858" d="m278 753 1-1-1 1z"/>
  <path fill="#A8422A" d="m303 778 1-11c-1-4 0-9-5-12v-2l5-5 20 1 1 47-20-1-2-6v-11z"/>
  <path fill="#B14825" d="M303 778v11l-8 2 4-12 2-1h2z"/>
  <path fill="#F28433" d="m351 660-4-2-2-28c-2-11-5-22-13-32-1 2-2 4-1 5l8 24a343 343 0 0 1-1 14c1-11-3-21-7-31l-3-3-2-10 7-7c8 6 10 14 13 23l4 19c-1 3-2 6 2 6-4 4-4 5 2 8l-3 4v10z"/>
  <path fill="#A72A2A" d="m339 626-8-23c-1-1 0-3 1-5 8 10 11 21 13 32l2 28-1 5h-1l-2-1-3-32-1-4z"/>
  <path fill="#F28433" d="m333 683-1-20h2l4 1 1 2 2 4v13l-1 4-2-1-5-3z"/>
  <path fill="#5F3E49" d="M353 671v-4l3-1 2 2v2h1l3 1 5 2 4 5 2 4v2h-3a241 241 0 0 0-9-7l-5-4h-1l-2-2z"/>
  <path fill="#8F4236" d="m356 666-4 1-1-4 4 3v-17l2-19 2 34-1-15h-2v17z"/>
  <path fill="#D37348" d="M355 650v16l-4-4v-12l3-4 1 4z"/>
  <path fill="#5F3E49" d="M341 683v-13l3-6h1l1 3v2l-1 4-4 10z"/>
  <path fill="#B56441" d="m353 671 2 2v1l-1 7-1-10zm1 13z"/>
  <path fill="#8F4236" d="m345 673 1-4-1 4zm1-6-1-3v-1h1v4z"/>
  <path fill="#A73830" d="m333 683 5 3 2 57-5-2-1-5-1-53z"/>
  <path fill="#F28433" d="m372 693-1 11-7-1-1 1-3-3-3-1c-2-3-1-7 0-11l1 3 6-5 4 4 4 2z"/>
  <path fill="#972A31" d="M357 701h3v10l1 45-2 1v-8l-1-4-1-44z"/>
  <path fill="#E68440" d="m372 693-4-2v-3l-6-4-5-3-1-3 5 1a70 70 0 0 0 6 4l4 5 3 5h-2z"/>
  <path fill="#E68440" d="m364 687-6 5-1-3v-6l5 1 2 3z"/>
  <path fill="#8F4236" d="m361 679-5-2-1-3v-1h1l5 4v2z"/>
  <path fill="#B56441" d="m362 684-5-2v-1l5 3z"/>
  <path fill="#EBA052" d="m358 745 1 4-1-4zm0 6 1 2-1-2z"/>
  <path fill="#A8422A" d="M302 732c4-2 3-6 3-10l-1-10 19 1v32l-18-1-1-9c0-2 1-3-2-3z"/>
  <path fill="#F5AD64" d="M320 644v-28l10 5 1 7v33h-2c-2 7-7 12-6 20 2 6 1 12 0 18l-1-7v-13l-1-29-1-6z"/>
  <path fill="#5F3947" d="m322 692 1 8-1 8-18-1v-1h1l-1-1v-10l1-3h17z"/>
  <path fill="#B56441" d="M331 661v-9l6 4v-9l1-6 1-3 1 20 2 4-3 4-1-2-4-1-2-2h-1z"/>
  <path fill="#2B2A4B" d="m304 707 18 1 1 4h-19v-5z"/>
  <path fill="#3D2B41" d="m305 744 18 2 1 3-20-1-1-1 1-3h1z"/>
  <path fill="#F5AD64" d="m332 661 2 2h-2v-2z"/>
  <path fill="#44384F" d="m281 675-1 1 1-1z"/>
  <path fill="#313657" d="m227 696-1 1 1-1z"/>
  <path fill="#44384F" d="m269 754 1-2 1 2h-2z"/>
  <path fill="#703F46" d="m320 644 1 6 1 29-17 1v-8l-1-16v-7l1-5h15z"/>
  <path fill="#44384F" d="M287 612c3-1 5-3 5-6l5-21 4 10 3 10 3-1 2 1 6 1c4 0 4 1 4 4h-1c-2-5-6-2-9-3s-4 1-4 4l-1 5h-1l-5-1-1-1 3-6-2-2-4 3c0 2-2 6 3 5v1c-2 2-7 0-7 5v14l-1 6-1-10-1-18z"/>
  <path fill="#B14825" d="m320 616-1 10h-15v-10a1070 1070 0 0 1 16 0z"/>
  <path fill="#663838" d="m305 692-1 3c-7 3-13 5-17 11v-6l16-8h2z"/>
  <path fill="#ED6622" d="M304 692h-1a2599 2599 0 0 1 1-48v48z"/>
  <path fill="#8F4236" d="M304 626h15l1 2-16-2z"/>
  <path fill="#703F46" d="m298 615 5 1-13 4c0-5 5-3 7-5h1z"/>
  <path fill="#BC4922" d="M304 649v-5h1l-1 5zm3-5h-2 2z"/>
  <path fill="#703F46" d="m276 588 2 1 1 1 1 4-7-4 3-2zm11 14v2l-1 1-1-2-4-8 6 7zm-6-7-1-1 1 1z"/>
  <path fill="#182451" d="M275 605z"/>
  <path fill="#2F3459" d="M255 639v-1 1z"/>
  <path fill="#182451" d="M278 615z"/>
  <path fill="#2F3459" d="M255 635v-1 1zm0 2v-1 1z"/>
  <path fill="#293458" d="M281 604c6 1 0 4 1 6l-1 2h-1l1-8zm-4 37h2l-1 1-1-1z"/>
  <path fill="#2F3459" d="m278 645-3 2 3-2zm4-1-4 1 4-1z"/>
  <path fill="#293458" d="M278 636c0 1 0 0 0 0z"/>
  <path fill="#2A3056" d="M236 661h-1l-1-7h2v7zm-1-14 1 3h-1v-3z"/>
  <path fill="#C54B17" d="M222 676z"/>
  <path fill="#182451" d="M230 626c1 0 0 0 0 0z"/>
  <path fill="#A8422A" d="M287 706c4-6 10-8 17-11v12l-18 8 1-9z"/>
  <path fill="#BC4922" d="M305 744h-1l-14 3c0-8 5-12 12-15 3 0 2 1 2 3l1 9z"/>
  <path fill="#8F4236" d="M299 753v2l-2 1v8l-3-5-6 3c-3-2-3-4 1-6l10-3z"/>
  <path fill="#A8422A" d="m290 747 14-3-1 3-16 7 3-7z"/>
  <path fill="#8F4236" d="m287 762-1 2 1-2zm236 79-1-1 1 1z"/>
  <path fill="#182451" d="M284 283v-2l3-2v11l-3 4a52 52 0 0 1 0-11z"/>
  <path fill="#272C54" d="m357 422-2-2c6-7 7-14 5-22l-4-17-13-23-6-4-6-4c6-1 10 3 15 7l4 5 4 5 9 30c2 9 2 18-6 25z"/>
  <path fill="#E68440" d="m354 367-4-5 2-1 1 2h1v4z"/>
  <path fill="#B56441" d="m353 363-1-2 1 2z"/>
  <path fill="#21C6C1" d="M264 397v-1h4l-4 1z"/>
  <path fill="#19295E" d="m274 370-4 5-6 10a109 109 0 0 0-8 14v2l-1 3h-1l1 1-1 2-6 3 4-12v-1l9-19 2-7 7-2 4 1z"/>
  <path fill="#21C6C1" d="m257 399 4-10c2 7 1 10-4 10z"/>
  <path fill="#0DBFB7" d="m254 407 1-2v-1l1-3h4l-1 5-3 3-2-2zm-2-9-4 12-1 1-4-2 9-11z"/>
  <path fill="#19295E" d="m247 411 1-1-1 1z"/>
  <path fill="#0DBFB7" d="m247 385-9 6c-2-10 1-13 10-12l-1 6zm-4-15 2-3 4-1c2 1 5 2 3 6l-2 4h-8l1-6zm4 21-8 9c-2-5-2-5 1-6a96 96 0 0 1 7-3z"/>
  <path fill="#0DBFB7" d="m254 372-4 7v-3l2-4h2zm7-9-3 3-6-6 4-5c7-1 4 4 5 8zm-6 7-1 2 1-2z"/>
  <path fill="#1A2754" d="M284 283v1-1z"/>
  <path fill="#E7E0CE" d="m343 358 13 23 4 17-7-3c-2 4 2 4 3 6s5 4 2 8l-4-5c-1-1-3-2-4-1l-5 1-9-10 1-1 5-1 3-7 7 1v-1l-11-8-4 6-1 2v9c-2-4-5-5-8-5v-1l3-3c1-7-5-4-8-6v-6l7 5v-5l-8-5 1-5 1-2 3 2v-7h4a6708 6708 0 0 1 5 12v-3l2 2 5 3v-12z"/>
  <path fill="#5A7298" d="M323 380c3 1 9-2 8 5l-4 3-3-2-1-6zm-1-11 8 4v5l-7-6-1-3z"/>
  <path fill="#9FE3BA" d="m324 361-1 2h-2v-1l3-1z"/>
  <path fill="#F4AC5A" d="M377 492v16l-2 1-1-3-1-2-1-2-1-3c-2-4-4-5-7-3l-5 4-1-7-3-1-3-3 4-3-9-6c-1-1-3 2-4 4v2l4-3 5 6 2 7-4-6c-2-4-3-4-7 0-1-2-4-4-4-6 1-4 0-6-2-9l-4-5-1-6-10 2-1-4-1-5c0-2 0-4-4-2l-2-7v-35l11 9 1 3v1l-2 2 1 14v10l3-2 2 5h2l2 1 4 4h2l2 5 3-1 1 6 2-4 2 5c1 2 1 2 3 1h2l2 6 3-4 1 8 4-4v2l2 7 2-5 1 2 2 6h1v-3l2 2 2 3z"/>
  <path fill="#E68440" d="m326 425-1-3 4 2-3 1z"/>
  <path fill="#F5AD64" d="m324 361-3 1v-2h1l2 1z"/>
  <path fill="#E68440" d="m321 351-2-1a3781 3781 0 0 0 2 1z"/>
  <path fill="#9FE3BA" d="m324 361-2-1c1-5 3-8 9-10l6 4-1 1h-3l-2 1h-4v7l-3-2z"/>
  <path fill="#2B2A4B" d="m239 489-2-2 2 2zm-2-2-1-1 1 1z"/>
  <path fill="#5F3E49" d="m314 448 2 7v2c0 10 0 10-10 11l-2 1v-21h10z"/>
  <path fill="#C54B17" d="m296 484 7-4 1 1v15l-11 5 1-2a113 113 0 0 0-1-13l1-1v-1h2z"/>
  <path fill="#44384F" d="M294 484v1h-1l-5-10c-2-4-4-5-8-2l-9 8 7-14 2-2 2-1 10 8 3 9-1 3z"/>
  <path fill="#5F3E49" d="M304 480h-1v-7h12v7h-11z"/>
  <path fill="#373858" d="M315 480v-7h2l5 4 3 2-1 6c-3-3-5-6-9-5z"/>
  <path fill="#8F4236" d="m322 477-5-4 3-11 2 15z"/>
  <path fill="#A8422A" d="m278 467-7 14-1 3h-1l3-11 3-4 3-2z"/>
  <path fill="#3D2B41" d="M322 477a211 211 0 0 1-1-15l1 4 3 12v1l-3-2z"/>
  <path fill="#8F4236" d="m292 472-10-8c6-2 7 3 10 7v1z"/>
  <path fill="#3D2B41" d="m298 467 2-3v4l-3 6-1-1a45 45 0 0 1 2-6zm12 6h-7 7zm-10-5 2 4h-1l-1-4z"/>
  <path fill="#1F2952" d="m298 467-1 2-1-3 2 1z"/>
  <path fill="#A8422A" d="m280 465-2 2 2-2z"/>
  <path fill="#1F2952" d="m294 484 1-3 1 2-2 1z"/>
  <path fill="#44384F" d="M292 472v-1 1z"/>
  <path fill="#B14825" d="m259 476-6 1c1-4 4-5 8-3l1 1 1 1 3 6-2-1-1-1-2-2-2-2zm8 7-1-1 1 1z"/>
  <path fill="#182450" d="m305 539-11 3-2 5-10 3 1-6v-47c0-5 2-9 5-12l4 3v52l13-6 11 1 2 2-1 3h-2l-10-1z"/>
  <path fill="#B84C27" d="m305 539 10 1v33h-10v-34z"/>
  <path fill="#5F3947" d="m305 574 10-1v2l1 5-1 3 1 1-1 7v3h-8l-2-16v-4z"/>
  <path fill="#B14825" d="m282 551 10-4-1 5-14 6-2-1 7-6z"/>
  <path fill="#2B2A4B" d="m274 557 3 1 15-6v2l-18 7c-1 0-3 3-4-2l4-2z"/>
  <path fill="#8F4236" d="m305 578 2 15c-1 0-2-1-2-3l-1-10 1-2z"/>
  <path fill="#293458" d="m275 557-5 2-1-62 1-13 1-3 9-8c4-3 6-2 8 2l5 10v2l-1 1-4-3c-3 3-5 7-5 12v47l-1 6-7 7z"/>
  <path fill="#182451" d="M258 560v-53l3-9h5l1 18-1 41-8 3z"/>
  <path fill="#B84C27" d="m258 560 8-2v4l-18 6 10-8z"/>
  <path fill="#5F3E49" d="m261 478 2 2-2-2zm-2-2 2 2-2-2zm4 4 1 1-1-1z"/>
  <path fill="#293458" d="M360 427h-1l-1-1 1-1 1 2zm-3-2h1v1l-1-1z"/>
  <path fill="#B56441" d="m357 425 1 1 1 1-3 1 1 5-3-6-3 4v-3l1-3 3-1 2 1zm-6 7h-1 1z"/>
  <path fill="#F7AF5C" d="M316 591v-11a88 88 0 0 0 0-7 7657 7657 0 0 1 1-33l10 8v13l1 10 1 3 1 9-1 5a3029 3029 0 0 1 8 1l5 2 4 1 8 8 5 4 5 4v1l-3 2-9 17-6-16c-3-8-5-16-13-22l-7 6-2-6v-8c-1-1-3-2-4-1l-2 3-1 8-1-1z"/>
  <path fill="#EBA052" d="M320 616v-1l6 1c0-4 2-9-5-8l-1-3 3-9 5 17v-5l2 7v6l-10-5z"/>
  <path fill="#774E4E" d="m319 605 2 3c7-1 5 4 5 8a40 40 0 0 0-7-1v-5c0-3 0-4-4-4l-6-1h10z"/>
  <path fill="#B56441" d="M328 608v5l-5-18 1-5 2 7 2 10v1z"/>
  <path fill="#E68440" d="m307 604-3 1-3-10 6 9z"/>
  <path fill="#4F3D54" d="m281 595-1-1-1-4 8 12-6-7z"/>
  <path fill="#B84C27" d="m315 591 1 1-1 2v-3z"/>
  <path fill="#4F3D54" d="m286 605 1-1 1 1h-2zm-7-15-1-1 1 1z"/>
  <path fill="#44384F" d="M391 688v-2 2z"/>
  <path fill="#3D2B41" d="M391 699v-1 1zm0 6v-1 1z"/>
  <path fill="#9A2733" d="M344 490c3-4 4-4 6 0l4 7 3 18 3-2 1 39 1 5v3l-1 23v-8l-5 2-10-8-2-45v-5a2718 2718 0 0 0 0-6v-23zm-17 64v-7l-1-5 1-3-2-51-1-3 1-6v-1l3-5c1 1 3 1 3 3 3 5 4 11 6 16l1 7 3-3 1 57v8l-6 1-9-8z"/>
  <path fill="#D37348" d="m346 592-4-1-5-2-1-1c1-6-3-5-6-5l2-1 3-3-3-1-3-4-1-3h3l29 20 18 13v4c-6-2-3 3-4 4h-3c-1-4 1-9-4-11l-2 5-2-7c-2 2 1 7-4 5l-5-4 3-6-3-1-5-5-4-1 1 3v2z"/>
  <path fill="#E59357" d="m341 496-3 3-1-7c-2-5-3-11-6-16 0-2-2-2-3-3l-3 5-3-12 10-2 1 6h-1 1l4 5-2 1h1l1-1c2 3 3 5 2 9 0 2 3 4 4 6a168 168 0 0 1 0 6v-3l-2 3z"/>
  <path fill="#E68440" d="m327 554 9 8 2 5-11-6v-7z"/>
  <path fill="#774E4E" d="M374 612c1-1-2-6 4-4l2 1 1 3-1 5-6-5z"/>
  <path fill="#2D2C52" d="m338 567-2-5 5-1 1 10-3-3a4 4 0 0 0-1-1z"/>
  <path fill="#E59357" d="m343 519 1 5-1-5z"/>
  <path fill="#9A2733" d="m341 496 2-3v3h-2z"/>
  <path fill="#E59357" d="m343 513 1 3-1-3z"/>
  <path fill="#E68440" d="m338 567 1 1-1-1z"/>
  <path fill="#774E4E" d="m386 640 1 14-2 16-4-21-3-17 2 2 5 16 1-10z"/>
  <path fill="#B56441" d="m386 640-1 10-4-16v-15l4 1v10l1 5v5z"/>
  <path fill="#D37348" d="M381 649a4310 4310 0 0 0 4 25l1 3-1 3-2-2c-1-4 3-9-4-9v-7l-1-13h3z"/>
  <path fill="#663838" d="m383 678 2 2v1l-1 3-4 4-1-5v-12l2 2 2 5z"/>
  <path fill="#8F4236" d="m385 620-4-1-1-2 1-5 4 8z"/>
  <path fill="#774E4E" d="m386 635-1-5 1 5zm0 42-1-3 1 3z"/>
  <path fill="#3D2B41" d="M387 708v-2 2zm0 4v-1 1z"/>
  <path fill="#774E4E" d="m386 638-1-1 1 1z"/>
  <path fill="#F28433" d="m364 583 11 7 3 5-12-6-2-6z"/>
  <path fill="#2B2A4B" d="m377 595-2-5 6-3 1 11-3-1-2-1v-1z"/>
  <path fill="#F7AF5C" d="m364 582 2 7-4-4v-25h1l1 22z"/>
  <path fill="#2B2A4B" d="m361 583 1 1-6-7 5-2v8z"/>
  <path fill="#F28433" d="m377 596 2 1-2-1z"/>
  <path fill="#5F3E49" d="m365 477-4 5-1-8 4-6 1 9zm-12-5c-2 1-2 1-3-1l-2-5 1-2 5-3-1 11z"/>
  <path fill="#4F3D54" d="M332 455h-2l-2-5v-2l4-4h1l-1 11zm5 5-3-3 3-10c3 5 1 9 0 13z"/>
  <path fill="#44384F" d="M328 447v3l-3 2v-10l1-3h1l1 8z"/>
  <path fill="#5F3E49" d="m342 465-2-5 2-9c3 5 2 9 0 14z"/>
  <path fill="#4F3D54" d="m360 473-3 5-2-6a211 211 0 0 1 4-7l1 8z"/>
  <path fill="#5F3E49" d="m369 482-2 5-2-7 3-7h1v9zm8 10-2-4c2-4-1-2-2-2l1-2 5-3v8l-2 3z"/>
  <path fill="#44384F" d="m349 464-1 2-2 4-1-6 3-8 1 1v7z"/>
  <path fill="#4F3D54" d="m374 484-1 2v4h-1l-2-5 3-8h1v7z"/>
  <path fill="#E68440" d="m327 431 1 1-1-1zm-1-5h2v1l-2-1zm5 7v2a3943 3943 0 0 0 0-2z"/>
  <path fill="#5A7298" d="M336 394a830 830 0 0 0 9 11l-1 8-5-3-1-1-6-5-2-2-1-1-2-2 1-10c3 0 6 1 8 5zm18 10 4 5c3-4-1-6-2-8s-5-2-3-6l7 3c2 8 1 15-5 22l-5-3 5-1-4-9 3-3z"/>
  <path fill="#9FE3BA" d="m351 407 4 9-5 1-6-4 1-8 3 6h1l-1-7 3 3z"/>
  <path fill="#774E4E" d="m342 422-3 1-6-12 1-4 4 2 1 1 5 7-1 2-1 2v1m-1-8-4-3-1 1 3 7 3-2-1-3z"/>
  <path fill="#3D2B41" d="M347 427c-2-5-2-5 0-7l1 6-1 1z"/>
  <path fill="#2D2C52" d="m355 424-3 1v-4l3 3zm-8 3 1-1 1 3h-2v-2z"/>
  <path fill="#3D2B41" d="m343 419 1-2-1 2z"/>
  <path fill="#2D2C52" d="M347 420h2-2z"/>
  <path fill="#3D2B41" d="M347 429h2l-2 2v-2zm-5-8 1-2-1 2zm9 7v1h-1l1-1z"/>
  <path fill="#21274D" d="m333 407-4 6-2-5 1-6 3 2 2 3z"/>
  <path fill="#774E4E" d="m331 404-3-2v-1h1l1 1a16 16 0 0 0 1 2z"/>
  <path fill="#293458" d="M329 401h-1v-1l1 1z"/>
  <path fill="#774E4E" d="m333 407-2-3h1l2 3h-1z"/>
  <path fill="#8F4236" d="m379 683 1 5-2 4-4 2v-1l-3-5-4-5 3 1h3l1-6v-2l3 11 2-4z"/>
  <path fill="#A73830" d="m363 704 1-1 2 3h-1l-2 1v-3z"/>
  <path fill="#3D2B41" d="m363 707 2-1c4 2 4 5 4 9v46l-5-3 1-6-2-45zm7 55-1-1 1 1z"/>
  <path fill="#E16834" d="m363 707 2 45-1 6-3-2-1-45v-10l3 3v3z"/>
  <path fill="#ED933C" d="m362 557-1-5-1-40v-2l3-1-1 19 1 28-1 1z"/>
  <path fill="#E16834" d="m375 509 3 15-2 8-7-28 1-2 4 7h1z"/>
  <path fill="#EBA052" d="m370 502-1 2-4-3-3 7-2-8 4-4c3-2 5-1 7 3l-1 3z"/>
  <path fill="#8F4236" d="m359 500 3 8 1 1-3 1-5-18 3 1 1 7z"/>
  <path fill="#F7AF5C" d="m362 557 1-1v3h-1v-2z"/>
  <path fill="#ED933C" d="M362 559h1v1h-1v-1z"/>
  <path fill="#A8422A" d="m297 756 2-1-2 1zm4 22-2 1 2-1z"/>
  <path fill="#F4AC5A" d="m355 649-1-3c-6-3-6-4-2-8l1-7 9-19 2-2h2v3a138 138 0 0 0-6 12l-3 5-2 19z"/>
  <path fill="#BC4922" d="M328 608v-1l3 3c4 10 8 20 7 31l-1 6-2-19-5-14-2-6z"/>
  <path fill="#972A31" d="m342 662-2-4-1-21v-10l1 3a2346 2346 0 0 1 3 32h-1z"/>
  <path fill="#5F3E49" d="m353 631-1 7-2-6-4-19 6 15 1 3z"/>
  <path fill="#F4AC5A" d="m350 632 2 6c-4 0-3-3-2-6z"/>
  <path fill="#972A31" d="M345 663v1h-1l-1-2 2 1z"/>
  <path fill="#8F4236" d="m343 662 1 2-3 6-2-4 3-4h1z"/>
  <path fill="#3D2B41" d="m367 673-5-2-2-24 2-4 3-1 2 31z"/>
  <path fill="#A73830" d="m367 673-2-31 2-1a623 623 0 0 1 4 37l-4-5z"/>
  <path fill="#E16834" d="m362 643-2 4a527 527 0 0 0-1 20v-3l-2-34 3-5v10h1l3-3-2 11z"/>
  <path fill="#ED6622" d="M371 678v-14h2a5162 5162 0 0 0 0 18l-2-4z"/>
  <path fill="#5F3947" d="M359 664v3l-1 1-2-2v-17h2l1 15z"/>
  <path fill="#B56441" d="m370 684-3-1a100 100 0 0 0-6-4v-2l9 7zm-9-7-5-4 5 4z"/>
  <path fill="#A73830" d="m373 682 1-4-1 6v-2z"/>
  <path fill="#8F4236" d="m358 668 1-1v3h-1v-2z"/>
  <path fill="#B56441" d="m364 687-2-3 6 4v3l-4-4z"/>
  <path fill="#8F4236" d="m361 679 6 4-6-4z"/>
  <path fill="#BC4922" d="M304 692a1269 1269 0 0 1 1-20v8l17-1v13h-18z"/>
  <path fill="#3D2B41" d="M335 628a9235 9235 0 0 0 2 28l-5-4-1-14v-6a43 43 0 0 1 0-8l-1 2 5 2z"/>
  <path fill="#972A31" d="m335 628-5-2 1-2v4l-1-7v-6l5 13zm-4 4z"/>
  <path fill="#663838" d="M304 701v-3 3zm0 5v-1l1 1h-1z"/>
  <path fill="#BC4922" d="M304 654v-1 1z"/>
  <path fill="#182450" d="M319 610v5l-15 1 1-5 13-1h1z"/>
  <path fill="#703F46" d="m318 610-12 1c-1-3 0-5 3-4s7-2 9 3z"/>
  <path fill="#1E254F" d="M297 614c-5 1-3-3-3-5l4-3 2 2-3 6zm1 1h-1v-1l1 1z"/>
  <path fill="#5A7298" d="m336 355 1-1 6 4v12l-5-3-2-12z"/>
  <path fill="#25548F" d="M255 404v1l-1-1h1z"/>
  <path fill="#1C5079" d="m252 372-2 4 2-4z"/>
  <path fill="#1A286C" d="M336 393v-8l1-2 4-6 11 8v1l-7-1-3 7a389 389 0 0 0-6 1z"/>
  <path fill-opacity="0" d="m336 355 2 12-2-2-3-10h3z"/>
  <path fill="#53AE98" d="m351 407-3-3 1 7h-1l-3-6 5-2c1-1 3 0 4 1l-3 3z"/>
  <path fill="#5A7298" d="m333 355 3 10v3h-2l-3-12 2-1zm3 38h1l-1 1v-1z"/>
  <path fill="#E59357" d="m355 492 5 18v2l-3 3-3-18-2-8 3 3zm-3-3-5-6-4 3v-2c1-2 3-5 4-4l9 6-4 3m-1-4 1 1v-1h-1z"/>
  <path fill="#ED933C" d="M373 487v-1c1 0 4-2 2 2l-2-1z"/>
  <path fill="#774E4E" d="m370 502 1-3 1 3h-2zm5 7h-1v-3l1 3zm-3-7 1 2-1-2zm1 2 1 2-1-2z"/>
  <path fill="#B14825" d="m305 534-13 6v-23l1-16 11-5v-15l11-1v21h-10v33z"/>
  <path fill="#44384F" d="m293 501-1 16v-29l1-1v14z"/>
  <path fill="#B14825" d="M294 499zm-1-13v-1h1l-1 1z"/>
  <path fill="#F4AC5A" d="M315 501v-20c4-2 6 1 9 4l1 3a10576 10576 0 0 1 1 54l-8-5-2-2-1-34z"/>
  <path fill="#703F46" d="m315 501 1 34-11-1v-33h10z"/>
  <path fill="#F5AD64" d="m318 537 8 5 1 5-10-7 1-3z"/>
  <path fill="#B84C27" d="m315 575 1 4-1-4zm0 8 1 1-1-1zm31 9v-2l-1-3 4 1 5 5 3 1-3 6-8-8z"/>
  <path fill="#5F3E49" d="M366 610h-2v-2l1-2 2-5c5 2 3 7 4 10l-3-2h-1l-1 1z"/>
  <path fill="#774E4E" d="m353 631-1-3a271 271 0 0 1 10-16l-9 19z"/>
  <path fill="#B56441" d="m329 574 3 4 3 1-3 3-2 1-1-9zm1 9c3 0 7-1 6 5h-7l1-5zm35 23-1 2-5-4c5 2 2-3 4-5l2 7zm-3 6-1-1 3-2v1l-2 2zm-26-24 1 1-1-1z"/>
  <path fill="#F4AC5A" d="m368 609 3 3h3l6 5 1 2a142 142 0 0 1-1 14l-3-1-2-5-2-7-1-2-3-5-2-4h1zm-31-134-1 1h-1l2-1zm-4-5h-1 1z"/>
  <path fill="#F28433" d="m373 620 2 7 2 5 4 17h-3l-1-1-3-11-7-17-4-2 3-5h3l3 5 1 2z"/>
  <path fill="#A73830" d="m374 637 3 11c0 5-3 10 2 14v7c7 0 3 5 4 9l-2-5-2-2h-1l1 1v11l-2 4-3-11-1-12-3-24 4-3z"/>
  <path fill="#BC4922" d="M379 662c-5-4-2-9-2-14l1 1 1 13zm0 7v-2 2z"/>
  <path fill="#8F4236" d="M379 681v-6 6zm0-9-1-1h1v1z"/>
  <path fill="#293458" d="m334 407-2-3 6 5-4-2zm-2-3h-1l-1-2 2 2zm-2-2-1-1 1 1zm9 8-1-1 1 1z"/>
  <path fill="#182450" d="m341 417-2 2a696326 696326 0 0 1-2-8l4 4v2z"/>
  <path fill="#293458" d="M341 417v-2 2z"/>
  <path fill="#EBA052" d="m373 504 1 2v3l-4-7h2l1 2z"/>
  <path fill="#E16834" d="M370 640a2129 2129 0 0 0 1 24l-4-23-3-9-4-7 3-7 3 2c-2 1-3 2-2 5l6 15z"/>
  <path fill="#B56441" d="m369 613-3-1v-2l1-1 2 4z"/>
  <path fill="#972A31" d="m364 632 3 9-2 1-3 1 2-11zm-4-6 4 6-3 3h-1v-9z"/>
  <path fill="#F4AC5A" d="M351 485h1v1l-1-1z"/>
  <path fill="#B56441" d="M368 609h-1 1zm4 9-3-5 3 5zm1 2-1-2 1 2z"/>
  <path fill="#B14825" d="m370 640-6-15c-1-3 0-4 3-5l7 17-4 3z"/>
</svg>
